<svg width="295" height="132" viewBox="0 0 295 132" fill="none" xmlns="http://www.w3.org/2000/svg">
<path fill-rule="evenodd" clip-rule="evenodd" d="M188.229 92.751C188.229 92.751 193.345 91.921 195.891 92.838C197.733 93.501 199.945 95.082 200.537 99.861C196.524 100.972 192.391 101.594 188.229 101.713C188.229 101.713 187.273 96.126 188.229 92.751Z" fill="#F3AE92"/>
<path opacity="0.5" fill-rule="evenodd" clip-rule="evenodd" d="M192.853 101.387C193.017 99.976 193.164 97.598 192.535 96.16C192.017 94.976 190.284 93.993 188.024 93.66C187.714 96.3394 187.781 99.0492 188.224 101.71C189.772 101.689 191.317 101.582 192.853 101.387H192.853Z" fill="#EB7C74"/>
<path opacity="0.2" fill-rule="evenodd" clip-rule="evenodd" d="M195.891 92.837C194.653 92.4812 193.364 92.3372 192.079 92.411C193.347 92.467 197.384 93.442 198.555 96.135C199.074 97.409 199.443 98.7393 199.655 100.099C200.219 99.954 200.541 99.86 200.541 99.86C199.947 95.081 197.733 93.5 195.891 92.837Z" fill="white"/>
<path fill-rule="evenodd" clip-rule="evenodd" d="M150.178 98.555C147.801 97.828 147.93 97.701 145.738 96.909C143.546 96.117 143.262 96.034 141.376 95.331C139.49 94.628 132.811 93.712 129.852 102.393C126.803 111.339 130.199 114.258 132.193 115.737C135.293 118.037 142.447 120.637 144.519 121.483C144.519 121.484 140.46 106.813 150.178 98.555Z" fill="#F29297"/>
<path fill-rule="evenodd" clip-rule="evenodd" d="M150.178 98.555C147.801 97.828 147.93 97.701 145.738 96.909C143.546 96.117 143.262 96.034 141.376 95.331C139.49 94.628 132.811 93.712 129.852 102.393C126.803 111.339 130.199 114.258 132.193 115.737C135.293 118.037 142.447 120.637 144.519 121.483C144.519 121.484 140.46 106.813 150.178 98.555Z" fill="#F29297"/>
<path fill-rule="evenodd" clip-rule="evenodd" d="M149.69 98.705C146.502 97.851 142.168 96.117 140.66 95.74C139.152 95.363 136.891 95.476 135.647 96.532C134.403 97.5881 137.462 96.521 141.117 97.764C144.772 99.007 146.311 99.751 147.529 100.218C148.747 100.685 149.69 98.705 149.69 98.705Z" fill="#F5A9A7"/>
<path opacity="0.5" fill-rule="evenodd" clip-rule="evenodd" d="M139.407 106.348C137.248 105.366 134.894 104.38 133.507 102.836C130.695 99.702 132.913 97.178 134.669 95.942C132.831 96.967 131.04 98.904 129.851 102.394C126.802 111.34 130.198 114.259 132.192 115.738C135.292 118.038 142.446 120.638 144.518 121.484C143.488 117.231 143.417 112.802 144.308 108.518C142.619 107.792 140.98 107.063 139.407 106.348Z" fill="#EC6469"/>
<path opacity="0.5" fill-rule="evenodd" clip-rule="evenodd" d="M132.424 97.764C131.264 99.1181 130.389 100.693 129.852 102.393C126.803 111.339 130.199 114.258 132.193 115.737C135.293 118.037 142.447 120.637 144.519 121.483C143.962 119.191 143.681 116.841 143.681 114.483C140.325 113.139 137.095 111.502 134.027 109.59C127.535 105.349 132.044 98.329 132.424 97.764Z" fill="#E73555"/>
<path fill-rule="evenodd" clip-rule="evenodd" d="M158.263 125.483C158.048 125.774 157.7 125.936 157.34 125.911C156.535 125.898 154.931 125.118 150.824 123.823C147.524 122.783 145.453 122.367 144.834 121.814C143.292 120.435 141.376 115.254 142.787 108.749C144.106 102.668 148.107 99.44 149.481 98.796C150.607 98.269 151.824 98.379 154.129 99.066C155.523 99.4815 156.943 99.8065 158.38 100.039C159.199 100.172 159.98 100.269 160.725 100.339C162.675 100.518 162.314 101.245 162.314 101.245C158.137 103.011 155.061 106.673 154.043 111.092C152.792 116.298 154.399 121.777 158.263 125.483Z" fill="#16A461"/>
<path fill-rule="evenodd" clip-rule="evenodd" d="M149.69 98.705C149.62 98.7319 149.55 98.762 149.481 98.795C148.766 99.1745 148.109 99.6536 147.529 100.218C150.485 101.39 153.511 102.38 156.59 103.18C156.59 103.18 158.322 103.014 159.64 102.74C160.111 102.407 160.551 102.134 160.932 101.918C160.563 101.732 160.167 101.604 159.759 101.538C156.443 100.824 151.712 99.351 149.69 98.705Z" fill="#3EC664"/>
<path fill-rule="evenodd" clip-rule="evenodd" d="M142.982 107.969C142.914 108.225 142.845 108.48 142.782 108.748C141.371 115.253 143.282 120.435 144.829 121.813C145.448 122.366 147.518 122.782 150.819 123.822C154.926 125.117 156.53 125.897 157.335 125.91C157.696 125.935 158.044 125.773 158.258 125.482C154.726 122.1 153.069 117.205 153.82 112.373C150.06 110.984 146.402 109.473 142.982 107.969Z" fill="#16935D"/>
<path fill-rule="evenodd" clip-rule="evenodd" d="M157.341 125.91C157.702 125.935 158.05 125.773 158.264 125.482C156.643 123.962 155.402 122.083 154.641 119.996L151.492 117.378C151.492 117.378 147.184 116.025 142.306 113.907C142.434 117.886 143.73 120.825 144.834 121.813C145.453 122.366 147.523 122.782 150.824 123.822C154.931 125.116 156.535 125.897 157.341 125.91Z" fill="#0E7F4C"/>
<path fill-rule="evenodd" clip-rule="evenodd" d="M148.323 110.805C149.246 105.609 153.072 101.405 158.159 99.998C156.903 99.7857 155.661 99.5029 154.437 99.151H154.432C153.172 99.29 146.718 102.219 145.553 109.624C144.424 116.797 147.301 122.002 148.313 123.067C149.049 123.28 149.887 123.525 150.829 123.821C151.297 123.969 151.729 124.108 152.135 124.242C148.977 120.527 147.587 115.625 148.323 110.805Z" fill="#FFD348"/>
<path fill-rule="evenodd" clip-rule="evenodd" d="M152.892 99.697C152.005 100.133 151.17 100.667 150.402 101.288C151.356 101.625 152.402 101.977 153.502 102.314C154.367 101.668 155.3 101.117 156.283 100.671C155.121 100.355 153.952 100.016 152.892 99.697Z" fill="#FFE568"/>
<g style="mix-blend-mode:multiply" opacity="0.1">
<path fill-rule="evenodd" clip-rule="evenodd" d="M152.128 124.243C148.971 120.527 147.582 115.624 148.32 110.804C148.35 110.624 148.388 110.449 148.42 110.275C147.479 109.892 146.55 109.506 145.634 109.117C145.602 109.285 145.569 109.452 145.541 109.625C144.412 116.798 147.289 122.003 148.301 123.068H148.308L148.766 123.201L148.935 123.251L149.335 123.367L149.544 123.429L149.972 123.558L150.172 123.617L150.826 123.817L151.509 124.035L152.128 124.243Z" fill="#E85D1C"/>
</g>
<g style="mix-blend-mode:multiply" opacity="0.3">
<path fill-rule="evenodd" clip-rule="evenodd" d="M151.507 124.041C151.717 124.109 151.918 124.174 152.113 124.241H152.127C150.201 121.968 148.901 119.232 148.358 116.303C147.496 115.991 146.498 115.618 145.416 115.192C145.636 118.032 146.636 120.756 148.305 123.065L148.762 123.197L148.884 123.232L149.449 123.399L149.536 123.425L149.959 123.552L150.159 123.611L150.811 123.811L151.494 124.029L151.507 124.041Z" fill="#E85D1C"/>
</g>
<path fill-rule="evenodd" clip-rule="evenodd" d="M230.124 90.962C230.124 90.962 228.895 90.519 224.3 92.301C219.705 94.083 192.791 103.43 162.314 101.242C162.314 101.242 156.031 100.381 152.186 109.235C148.341 118.089 155.815 124.358 155.815 124.358C155.815 124.358 166.274 130.328 191.515 131.499C215.797 132.625 227.509 129.899 232.652 128.589C237.989 127.225 239.818 126.137 240.13 125.45C240.433 124.79 230.124 90.962 230.124 90.962Z" fill="#FFD348"/>
<g style="mix-blend-mode:multiply" opacity="0.1">
<path fill-rule="evenodd" clip-rule="evenodd" d="M181.677 118.515C172.296 118.489 161.377 115.315 151.435 111.472C149.586 119.125 155.815 124.356 155.815 124.356C155.815 124.356 166.274 130.326 191.515 131.497C215.797 132.623 227.509 129.897 232.652 128.587C237.989 127.223 239.818 126.135 240.13 125.448C239.758 123.477 239.263 121.532 238.647 119.623L219.969 115.249C207.328 117.48 194.513 118.573 181.677 118.515L181.677 118.515Z" fill="#E85D1C"/>
</g>
<path fill-rule="evenodd" clip-rule="evenodd" d="M230.125 90.962C230.125 90.962 228.896 90.519 224.301 92.301C219.706 94.083 192.792 103.43 162.315 101.242C162.315 101.242 157.015 100.522 153.167 107.274C178.488 115.71 207.751 109.235 217.093 106.28L230.611 101.821L232.634 99.253C231.196 94.473 230.125 90.962 230.125 90.962Z" fill="#FFDA60"/>
<path fill-rule="evenodd" clip-rule="evenodd" d="M223.799 96.884C223.799 96.884 230.599 91.684 228.318 92.184C226.037 92.684 216.095 97.657 195.318 101.022C183.554 102.918 171.576 103.092 159.761 101.536C158.61 101.877 157.535 102.435 156.593 103.179C166.034 105.353 175.75 106.09 185.411 105.366C207.296 103.902 219.919 98.534 223.799 96.884Z" fill="#FFE568"/>
<path d="M153.167 107.274C178.488 115.71 207.751 109.235 217.093 106.28" stroke="#FFEAA8" stroke-width="3"/>
<path fill-rule="evenodd" clip-rule="evenodd" d="M222.617 121.389C218.563 122.828 187.398 129.745 151.493 117.38C152.258 120.063 153.754 122.479 155.815 124.359C155.815 124.359 166.274 130.329 191.515 131.5C215.797 132.626 227.509 129.9 232.652 128.59C237.989 127.226 239.818 126.138 240.13 125.451C239.509 122.504 238.736 119.591 237.814 116.724L222.617 121.389Z" fill="#FECB2F"/>
<g style="mix-blend-mode:multiply" opacity="0.3">
<path fill-rule="evenodd" clip-rule="evenodd" d="M240.134 125.448C240.107 125.036 240.029 124.628 239.904 124.234L231.399 123.842C221.577 128.301 179.246 133.915 151.493 117.377C151.835 118.653 152.363 119.873 153.059 120.996C153.808 122.245 154.737 123.377 155.815 124.356C155.815 124.356 166.274 130.326 191.515 131.497C215.797 132.623 227.509 129.897 232.652 128.587C237.993 127.224 239.822 126.136 240.134 125.448Z" fill="#E85D1C"/>
</g>
<path d="M222.617 121.388C218.563 122.827 187.398 129.744 151.493 117.379" stroke="#FFE568" stroke-width="3"/>
<path fill-rule="evenodd" clip-rule="evenodd" d="M161.889 112.38C159.789 111.928 158.773 111.697 157.276 111.447C154.676 111.013 154.334 114.421 156.346 115.547C157.907 116.414 159.594 117.03 161.346 117.375C162.378 117.609 163.436 117.71 164.494 117.675C165.479 117.676 166.355 117.05 166.674 116.118C166.974 115.004 166.417 113.836 165.362 113.369C164.242 112.918 163.078 112.586 161.889 112.38L161.889 112.38Z" fill="#16A461"/>
<path fill-rule="evenodd" clip-rule="evenodd" d="M156.345 115.551C157.906 116.418 159.593 117.034 161.345 117.379C162.377 117.613 163.435 117.714 164.493 117.679C165.375 117.666 166.178 117.165 166.579 116.379C162.745 115.419 158.879 114.198 155.098 112.84C154.894 113.917 155.394 115.005 156.345 115.551H156.345Z" fill="#16935D"/>
<path fill-rule="evenodd" clip-rule="evenodd" d="M163.324 116.79C163.087 116.772 162.968 116.761 162.732 116.736C162.492 116.48 162.377 116.35 162.153 116.087C160.841 114.51 160.363 113.698 159.516 113.403C159.237 113.262 158.912 113.24 158.617 113.34C158.32 113.441 158.077 113.656 157.942 113.938C157.762 114.327 157.758 114.774 157.929 115.166C157.647 115.152 157.506 115.143 157.229 115.118C157.041 114.589 157.095 114.004 157.375 113.518C157.817 112.685 158.824 112.329 159.692 112.699C160.683 113.046 161.282 113.94 162.348 115.232C162.501 115.432 162.58 115.524 162.742 115.716H162.762C162.968 114.766 163.054 114.289 163.192 113.335C163.457 113.361 163.592 113.372 163.858 113.387C163.748 114.531 163.569 115.667 163.324 116.79V116.79Z" fill="#FFD348"/>
<path fill-rule="evenodd" clip-rule="evenodd" d="M230.124 90.961C228.924 91.279 225.124 95.039 222.524 98.487C219.924 101.935 217.283 104.862 217.094 106.279C216.905 107.696 219.03 112.606 219.974 115.25C220.676 117.369 221.561 119.422 222.618 121.388C223.043 121.907 228.992 123.182 231.4 123.843C233.808 124.504 239.285 125.637 240.135 125.449C240.985 125.261 249.111 116.695 253.216 111.08C256.304 106.9 259.125 102.528 261.661 97.9909C261.992 97.283 261.995 95.991 260.248 95.703C258.501 95.415 250.568 94.413 244.29 93.437C238.414 92.519 231.446 90.611 230.124 90.961Z" fill="#F8E9D0"/>
<path fill-rule="evenodd" clip-rule="evenodd" d="M261.007 95.937C260.767 95.8208 260.511 95.7419 260.247 95.703C258.5 95.42 250.567 94.413 244.288 93.437C238.412 92.524 231.445 90.611 230.123 90.962C228.923 91.28 225.118 95.04 222.523 98.488C220.396 101.312 218.24 103.788 217.423 105.367C218.914 104.895 224.6 103.892 236.339 101.713C238.525 101.307 241.154 100.792 243.313 100.413C249.306 99.3223 255.217 97.8269 261.007 95.9369L261.007 95.937Z" fill="#FCF1E0"/>
<path fill-rule="evenodd" clip-rule="evenodd" d="M261.007 95.937C262.263 97.537 259.902 99.145 257.348 101.337C254.794 103.529 248.948 107.758 238.123 111.078C226.917 114.514 224.472 114.514 219.973 115.249C220.675 117.367 221.56 119.421 222.617 121.387C223.042 121.906 228.991 123.181 231.399 123.842C233.807 124.503 239.284 125.636 240.134 125.448C240.984 125.26 249.11 116.694 253.215 111.079C256.304 106.899 259.125 102.527 261.661 97.99C261.856 97.6327 261.896 97.2114 261.773 96.8237C261.649 96.4361 261.373 96.1157 261.007 95.937V95.937Z" fill="#F5DFCE"/>
<path fill-rule="evenodd" clip-rule="evenodd" d="M257.942 96.136C257.942 96.136 249.558 95.643 243.304 94.567C237.599 93.586 229.835 91.977 228.319 92.183C226.695 93.632 225.184 95.2032 223.8 96.8829C224.386 96.501 227.126 96.44 234.959 96.883C241.541 97.26 254.215 97.153 257.942 96.136Z" fill="#FFF8ED"/>
<path fill-rule="evenodd" clip-rule="evenodd" d="M260.83 99.489C257.064 105.705 244.879 117.704 231.399 123.843C233.807 124.504 239.284 125.637 240.134 125.449C240.984 125.261 249.11 116.695 253.215 111.08C256.755 106.238 259.515 101.764 260.831 99.489H260.83Z" fill="#EDC1AD"/>
<path fill-rule="evenodd" clip-rule="evenodd" d="M260.249 95.703C258.639 95.442 251.778 94.566 245.798 93.667C245.798 93.667 241.731 97.288 243.985 103.783C246.239 110.278 253.216 111.083 253.216 111.083C256.304 106.903 259.126 102.531 261.662 97.994C261.991 97.283 261.995 95.987 260.249 95.703Z" fill="#194A72"/>
<path fill-rule="evenodd" clip-rule="evenodd" d="M260.013 95.667L259.863 95.644L259.779 95.631L259.629 95.609L259.509 95.592L259.361 95.571L259.226 95.552L259.062 95.529L258.921 95.509L258.726 95.482L258.599 95.464L258.36 95.431L258.245 95.415C255.371 95.015 250.332 94.35 245.798 93.668C244.055 95.4632 243.153 97.9121 243.315 100.409C252.815 98.726 262.073 96.437 260.249 95.703L260.073 95.675L260.013 95.667Z" fill="#29688C"/>
<path fill-rule="evenodd" clip-rule="evenodd" d="M261.729 97.817C261.739 97.787 261.749 97.757 261.758 97.726C261.767 97.695 261.768 97.687 261.774 97.667C261.78 97.647 261.787 97.611 261.793 97.582C261.799 97.553 261.802 97.537 261.806 97.514C261.81 97.491 261.813 97.461 261.817 97.434C261.821 97.407 261.823 97.383 261.825 97.357C261.827 97.331 261.825 97.317 261.825 97.296C261.829 97.2327 261.829 97.1693 261.825 97.106C261.825 97.092 261.825 97.078 261.825 97.064C261.825 97.028 261.816 96.992 261.809 96.956C261.809 96.941 261.804 96.927 261.801 96.912C261.793 96.875 261.784 96.838 261.773 96.802C261.773 96.79 261.766 96.778 261.762 96.766C261.749 96.726 261.735 96.687 261.718 96.648V96.639C261.656 96.4987 261.57 96.3704 261.463 96.26C261.427 96.2247 261.39 96.1913 261.351 96.16L261.326 96.139C261.286 96.1065 261.244 96.0762 261.2 96.048L261.169 96.029C261.122 96 261.069 95.971 261.019 95.944C262.274 97.544 259.914 99.152 257.36 101.344C255.711 102.76 251.776 105.097 246.701 107.972C248.51 109.647 250.786 110.733 253.227 111.085C256.313 106.902 259.131 102.527 261.664 97.988C261.683 97.948 261.701 97.904 261.717 97.86C261.719 97.848 261.724 97.832 261.729 97.817Z" fill="#123668"/>
<path fill-rule="evenodd" clip-rule="evenodd" d="M243.754 97.083C249.521 97.065 255.56 96.783 257.942 96.137C257.942 96.137 250.854 95.72 244.85 94.816C244.38 95.5165 244.011 96.2796 243.754 97.083V97.083Z" fill="#3C8DAA"/>
<path fill-rule="evenodd" clip-rule="evenodd" d="M253.944 110.072C254.127 109.817 254.307 109.564 254.485 109.312L254.509 109.278C254.694 109.015 254.877 108.755 255.056 108.496L255.192 108.296C255.357 108.059 255.519 107.824 255.679 107.591L255.722 107.528C255.894 107.277 256.063 107.028 256.228 106.782L256.354 106.595C256.501 106.376 256.646 106.159 256.789 105.945L256.846 105.86C257.005 105.621 257.16 105.386 257.311 105.155L257.419 104.99L257.819 104.38L257.873 104.297C258.018 104.072 258.159 103.852 258.296 103.637L258.386 103.495C258.507 103.305 258.625 103.118 258.741 102.934L258.792 102.853C258.925 102.644 259.052 102.441 259.173 102.243L259.235 102.143C259.346 101.963 259.454 101.787 259.56 101.616L259.597 101.556C259.713 101.366 259.824 101.182 259.932 101.005L259.968 100.946L260.268 100.453L260.282 100.429L260.571 99.942L260.581 99.924C260.672 99.77 260.758 99.624 260.838 99.484C258.076 103.579 254.788 107.293 251.06 110.533C251.761 110.783 252.485 110.965 253.222 111.075C253.422 110.805 253.616 110.536 253.806 110.269L253.944 110.072Z" fill="#0E2D54"/>
<path fill-rule="evenodd" clip-rule="evenodd" d="M161.693 101.713C161.493 103.153 162.15 105.585 165.757 106.903C169.364 108.221 174.605 107.161 175.169 107.161C175.733 107.161 176.361 107.537 175.984 109.607C175.801 111.246 175.886 112.904 176.236 114.516C175.617 114.927 175.402 115.735 175.736 116.398C176.236 117.698 175.236 118.947 175.236 120.33C175.236 121.713 174.421 125.53 177.936 125.911C181.451 126.292 190.167 122.573 190.042 121.484C189.917 120.395 187.383 119.745 185.984 117.684C184.585 115.623 185.053 102.961 179.677 102.767C174.301 102.573 161.693 101.713 161.693 101.713Z" fill="url(#paint0_linear)"/>
<path fill-rule="evenodd" clip-rule="evenodd" d="M164.851 68.721C162.779 68.2439 160.613 68.9398 159.207 70.534C157.085 72.757 155.33 76.206 157.075 77.558C158.82 78.91 164.851 68.721 164.851 68.721Z" fill="#28BBE2"/>
<g style="mix-blend-mode:multiply" opacity="0.2">
<path fill-rule="evenodd" clip-rule="evenodd" d="M164.852 68.721C162.802 69.6038 161.007 70.9884 159.633 72.747C158.007 74.773 157.024 74.806 157.001 73.663C156.239 75.236 156.047 76.763 157.075 77.563C158.819 78.91 164.852 68.721 164.852 68.721Z" fill="#242357"/>
</g>
<path fill-rule="evenodd" clip-rule="evenodd" d="M154.952 81.49C154.098 81.361 152.352 81.814 151.399 83.996C150.446 86.178 149.758 91.313 151.134 93.113C151.819 94.141 153.047 94.6658 154.263 94.45L154.952 81.49Z" fill="#28BBE2"/>
<g style="mix-blend-mode:multiply" opacity="0.2">
<path fill-rule="evenodd" clip-rule="evenodd" d="M152.317 87.987C151.958 90.448 150.698 90.457 150.361 89.777C150.28 90.9411 150.549 92.1028 151.133 93.113C151.818 94.1409 153.046 94.6658 154.262 94.45L154.952 81.49C154.952 81.49 153.013 83.222 152.317 87.987Z" fill="#242357"/>
</g>
<path fill-rule="evenodd" clip-rule="evenodd" d="M177.136 68.159C175.484 67.228 170.244 66.447 166.168 68.028C162.092 69.609 156.058 77.691 153.781 84.378C151.504 91.065 153.431 97.135 160.725 97.978C168.019 98.821 171.785 97.819 173.555 96.972C175.325 96.125 178.15 90.019 179.401 83.204C180.652 76.389 177.136 68.159 177.136 68.159Z" fill="#28BBE2"/>
<g style="mix-blend-mode:multiply" opacity="0.2">
<path fill-rule="evenodd" clip-rule="evenodd" d="M177.136 68.159C174.709 67.6434 172.189 67.785 169.836 68.569C166.65 69.569 161.35 73.414 158.496 78.76C155.642 84.106 158.767 94.605 158.496 95.368C158.282 95.968 156.035 95.768 154.217 94.384C155.716 96.5182 158.112 97.8455 160.717 97.9841C168.012 98.8311 171.777 97.8251 173.547 96.9781C175.317 96.1311 178.142 90.0251 179.392 83.2101C180.642 76.3951 177.136 68.159 177.136 68.159Z" fill="#242357"/>
</g>
<path opacity="0.2" fill-rule="evenodd" clip-rule="evenodd" d="M153.39 82.055C152.147 82.9383 151.317 84.2891 151.09 85.797C150.725 87.643 151.573 87.364 151.823 86.531C152.073 85.698 152.414 83.784 153.361 82.713C154.128 81.84 153.765 81.84 153.39 82.055Z" fill="#F5FFFE"/>
<path opacity="0.2" fill-rule="evenodd" clip-rule="evenodd" d="M162.017 69.038C160.703 69.4526 159.576 70.3141 158.83 71.473C158.265 72.483 158.886 72.734 159.509 72.057C160.132 71.38 161.339 69.845 162.554 69.393C163.769 68.941 163.092 68.722 162.017 69.038Z" fill="#F5FFFE"/>
<path opacity="0.2" fill-rule="evenodd" clip-rule="evenodd" d="M170.198 67.52C170.498 67.558 169.417 67.86 167.77 68.72C165.817 69.8733 163.999 71.2411 162.349 72.798C161.275 73.833 160.608 72.898 163.43 70.28C165.58 68.291 168.761 67.338 170.198 67.52Z" fill="#F5FFFE"/>
<path fill-rule="evenodd" clip-rule="evenodd" d="M187.063 74.985C187.477 75.77 189.074 80.801 187.641 83.557C186.208 86.313 184.66 84.513 184.66 84.513L186.055 75.285L187.063 74.985Z" fill="#007CB6"/>
<path fill-rule="evenodd" clip-rule="evenodd" d="M186.97 76.805C186.92 76.2304 186.808 75.6629 186.637 75.112L186.057 75.284L184.662 84.512C184.93 84.8043 185.285 85.0021 185.674 85.076C185.541 84.83 185.452 84.693 185.452 84.693C186.785 82.2925 187.317 79.5289 186.97 76.805Z" fill="#00629E"/>
<path fill-rule="evenodd" clip-rule="evenodd" d="M187.911 82.912C187.101 82.3663 186.04 82.3663 185.23 82.912C184.459 83.512 184.241 85.512 184.241 85.512L184.985 90.257C185.407 90.6049 185.908 90.8451 186.444 90.957C187.001 90.9895 187.542 90.7633 187.91 90.344C188.221 90.081 188.921 90.081 189.183 89.381C189.316 88.6907 189.521 88.0163 189.796 87.369C190.146 86.888 191.229 86.1 190.753 84.831C190.267 83.9669 190.124 82.9516 190.353 81.987C190.606 81.12 191.023 80.377 190.561 79.815C189.986 79.115 188.796 79.668 188.222 80.587C188.244 81.3737 188.139 82.1587 187.911 82.912Z" fill="#F8C6A3"/>
<path fill-rule="evenodd" clip-rule="evenodd" d="M188.348 85.912C188.339 85.612 187.18 85.279 186.367 84.471C186.015 84.1384 185.928 83.6121 186.153 83.1834C186.378 82.7547 186.862 82.5285 187.335 82.63C186.63 82.3809 185.849 82.4858 185.235 82.912C184.464 83.512 184.246 85.512 184.246 85.512L184.99 90.257C185.413 90.6049 185.913 90.8451 186.449 90.957C186.817 91.0024 187.188 90.9062 187.488 90.688C187.183 90.8155 186.831 90.7263 186.623 90.469C186.223 90.024 186.764 89.077 187.031 88.459C187.298 87.841 185.794 87.359 186.551 86.027C186.919 85.365 188.357 86.214 188.348 85.912Z" fill="#F2A37C"/>
<path fill-rule="evenodd" clip-rule="evenodd" d="M189.827 79.498C189.156 79.597 188.567 79.9964 188.227 80.583C188.248 81.3716 188.141 82.1584 187.912 82.913C187.912 82.913 188.729 83.44 189.312 83.85C189.098 83.5286 188.947 83.1691 188.868 82.791C188.619 82.0001 188.64 81.149 188.926 80.371C189.104 79.9761 189.427 79.6639 189.827 79.498V79.498Z" fill="#F2A37C"/>
<path opacity="0.3" fill-rule="evenodd" clip-rule="evenodd" d="M190.093 81.75C189.805 82.6663 189.912 83.6491 190.392 84.495C190.826 85.4125 190.638 86.4776 189.911 87.223H189.911C190.723 86.6699 191.086 85.7201 190.83 84.823C190.3 83.959 190.145 82.9436 190.394 81.979C190.67 81.112 191.125 80.369 190.621 79.807C190.794 80.09 190.578 80.758 190.093 81.75Z" fill="white"/>
<path fill-rule="evenodd" clip-rule="evenodd" d="M183.479 72.795C183.479 72.795 185.799 72.281 186.219 76.51C186.567 79.2338 186.035 81.9974 184.702 84.398C186.096 86.729 186.493 89.5232 185.802 92.15C184.996 94.92 171.302 97.602 160.726 95.274C160.726 95.274 161.08 85.811 164.471 79.334C166.466 75.4883 169.654 72.3929 173.557 70.512L177.137 70.281C178.014 71.4144 179.11 72.3592 180.36 73.059C181.389 73.4232 182.526 73.327 183.479 72.795Z" fill="#EFF8FC"/>
<path fill-rule="evenodd" clip-rule="evenodd" d="M172.182 96.028L177.026 92.151C177.026 92.151 171.202 93.41 167.838 92.76C164.474 92.11 163.677 88.721 164.852 87.224L163.975 85.224L162.217 85.437C161.408 88.66 160.909 91.953 160.726 95.271C164.491 96.0582 168.347 96.313 172.182 96.028H172.182Z" fill="#CCE4EA"/>
<path fill-rule="evenodd" clip-rule="evenodd" d="M179.67 82.862C179.67 82.862 183.322 82.981 184.701 84.399C184.902 84.115 185.064 83.8052 185.182 83.478C183.562 82.3681 181.495 82.1371 179.67 82.862Z" fill="#CCE4EA"/>
<path fill-rule="evenodd" clip-rule="evenodd" d="M165.72 86.288C167.22 86.665 169.183 88.613 173.148 88.872C175.951 89.2429 178.766 88.2877 180.765 86.288C178.525 87.1704 176.044 87.2296 173.765 86.455C169.455 84.969 168.225 81.286 163.809 81.186C163.739 81.186 163.672 81.186 163.603 81.191C162.286 84.6256 161.418 88.2155 161.02 91.8721L165.72 86.288Z" fill="#CCE4EA"/>
<path fill-rule="evenodd" clip-rule="evenodd" d="M181.385 77.682C181.385 77.682 181.311 80.864 178.753 81.75C178.753 81.75 182.533 81.709 182.642 79.494C182.751 77.279 181.385 77.682 181.385 77.682Z" fill="#A9CBD3"/>
<path fill-rule="evenodd" clip-rule="evenodd" d="M179.67 74.281C179.67 74.281 179.777 77.435 181.677 77.955C183.644 78.492 182.041 74.331 181.777 74.296C181.513 74.261 179.67 74.281 179.67 74.281Z" fill="#A9CBD3"/>
<path fill-rule="evenodd" clip-rule="evenodd" d="M181.279 73.657C180.401 74.1493 179.827 75.0469 179.748 76.05C179.665 76.83 179.674 76.983 179.479 76.94C178.799 76.8441 178.168 76.5321 177.679 76.05C176.779 75.239 178.912 72.057 178.912 72.057H179.305C180.071 72.0571 180.765 72.5065 181.079 73.205L181.279 73.657Z" fill="#A9CBD3"/>
<path fill-rule="evenodd" clip-rule="evenodd" d="M184.478 74.531C184.848 75.1786 185.031 75.9157 185.009 76.661C185.049 76.924 186.351 76.008 186.446 75.511C186.328 74.6046 186.103 73.7155 185.773 72.863L184.478 74.531Z" fill="#A9CBD3"/>
<path fill-rule="evenodd" clip-rule="evenodd" d="M174.195 71.072L176.724 70.909C177.532 72.9758 177.532 75.2712 176.724 77.338C175.38 80.902 172.693 82.592 169.645 82.271L174.195 71.072Z" fill="#CCE4EA"/>
<path fill-rule="evenodd" clip-rule="evenodd" d="M173.555 70.513L176.084 70.35C176.892 72.4166 176.892 74.7115 176.084 76.778C174.739 80.342 172.052 82.032 169.005 81.711L173.555 70.513Z" fill="#007CB6"/>
<path fill-rule="evenodd" clip-rule="evenodd" d="M169.005 81.711C169.47 81.7601 169.94 81.7601 170.405 81.711C171.818 80.1518 173.107 78.4847 174.26 76.7249C175.309 74.9221 175.473 72.7373 174.705 70.798C174.615 70.6647 174.499 70.5509 174.364 70.463L173.555 70.515L169.005 81.711Z" fill="#00629E"/>
<path fill-rule="evenodd" clip-rule="evenodd" d="M168.528 80.568C168.528 80.568 156.085 96.024 155.157 97.091C154.229 98.158 154.043 99.226 151.909 99.179C150.056 99.1866 148.213 99.4521 146.433 99.968C144.67 100.386 143.417 100.246 143.556 99.225C143.695 98.204 145.737 96.905 145.737 96.905L141.375 95.327C141.878 94.6844 142.647 94.308 143.463 94.306C144.901 94.259 147.263 94.906 147.963 94.906C148.663 94.906 149.309 94.442 150.608 92.678C151.907 90.914 161.837 77.551 161.837 77.551L168.528 80.568Z" fill="#F8C6A3"/>
<path fill-rule="evenodd" clip-rule="evenodd" d="M160.418 79.469L157.389 83.546C158.004 84.3886 158.775 85.1047 159.661 85.655C160.516 85.6331 161.369 85.561 162.216 85.439C162.216 85.439 154.344 95.904 153.341 97.057C152.338 98.21 150.441 97.803 148.709 98.301C146.977 98.799 144.831 100.395 143.614 99.695C143.889 100.279 144.989 100.311 146.433 99.969C148.213 99.4532 150.055 99.1877 151.908 99.18C154.043 99.226 154.229 98.159 155.157 97.092C155.857 96.284 163.157 87.238 166.663 82.884L160.418 79.469Z" fill="#F2A37C"/>
<path fill-rule="evenodd" clip-rule="evenodd" d="M146.951 96.257C146.951 96.257 142.664 95.224 142.295 95.084C141.972 94.962 142.282 94.571 142.526 94.492C142.07 94.6552 141.671 94.9469 141.377 95.332L145.739 96.91C146.131 96.6717 146.536 96.4537 146.951 96.257L146.951 96.257Z" fill="#F2A37C"/>
<path opacity="0.3" fill-rule="evenodd" clip-rule="evenodd" d="M150.61 92.686C149.31 94.45 148.661 94.914 147.965 94.914C147.269 94.914 144.902 94.264 143.465 94.314C143.358 94.318 143.25 94.3277 143.144 94.343C144.502 94.4673 145.84 94.7589 147.127 95.211C148.043 95.6106 149.114 95.312 149.691 94.496C150.663 93.383 157.177 83.842 157.179 83.839C154.405 87.567 151.298 91.753 150.61 92.686Z" fill="white"/>
<path fill-rule="evenodd" clip-rule="evenodd" d="M173.555 70.513C172.777 69.279 168.981 69.351 165.937 71.947C162.475 74.899 159.207 78.275 159.207 78.275C159.207 78.275 159.658 79.925 162.198 82.16C163.492 83.3515 165.19 84.0058 166.949 83.99C166.949 83.99 171.597 79.029 173.11 76.44C174.16 74.6372 174.324 72.4523 173.555 70.513Z" fill="#DEF1F8"/>
<path fill-rule="evenodd" clip-rule="evenodd" d="M162.199 82.16C163.492 83.3513 165.191 84.0057 166.949 83.99C166.949 83.99 171.597 79.029 173.11 76.439C173.629 75.5569 173.937 74.5668 174.01 73.546V73.525C172.77 76.381 166.837 82.979 159.21 78.275C159.207 78.275 159.658 79.925 162.199 82.16Z" fill="#CCE4EA"/>
<path fill-rule="evenodd" clip-rule="evenodd" d="M172.187 70.301C170.289 70.2041 168.414 70.7467 166.861 71.842C165.412 72.869 164.335 74.064 166.861 74.227C168.989 74.1807 171.02 73.3283 172.544 71.842C173.148 71.187 173.532 70.413 172.187 70.301Z" fill="#E9F6FB"/>
<path fill-rule="evenodd" clip-rule="evenodd" d="M171.047 70.64C169.864 70.6951 168.734 71.1479 167.84 71.925C167.24 72.546 170.745 72.102 171.84 71.634C173.181 71.058 172.732 70.453 171.047 70.64Z" fill="#EFF8FC"/>
<path fill-rule="evenodd" clip-rule="evenodd" d="M184.825 70.538C185.553 70.4831 186.268 70.7593 186.769 71.29C187.436 72.4105 187.547 73.7767 187.069 74.99C186.503 76.782 185.719 76.81 185.555 76.777C185.391 76.744 185.573 74.943 184.94 74.301C184.307 73.659 183.481 72.801 183.481 72.801C183.481 72.801 184.099 70.932 184.825 70.538Z" fill="#DEF1F8"/>
<path fill-rule="evenodd" clip-rule="evenodd" d="M187.027 71.749C186.957 71.5862 186.871 71.431 186.769 71.286C186.267 70.7553 185.553 70.479 184.825 70.534C184.099 70.928 183.477 72.792 183.477 72.792C183.477 72.792 184.304 73.651 184.936 74.292C185.261 74.7589 185.434 75.315 185.43 75.884C185.513 74.865 185.369 73.8403 185.007 72.884C184.861 72.357 185.114 71.8014 185.607 71.565C186.082 71.3864 186.614 71.4554 187.027 71.749Z" fill="#CCE4EA"/>
<path fill-rule="evenodd" clip-rule="evenodd" d="M186.538 72.238C185.973 71.904 185.738 72.823 185.938 73.831C186.047 74.5997 186.036 75.3806 185.906 76.146C185.889 76.425 186.398 76.046 186.761 74.992C187.124 73.938 187.224 72.644 186.538 72.238Z" fill="#E9F6FB"/>
<path fill-rule="evenodd" clip-rule="evenodd" d="M179.665 67.595C178.899 68.5597 178.053 69.4582 177.136 70.281C177.136 70.281 178.671 73.666 181.774 74.295C183.099 73.3899 184.158 72.147 184.841 70.695C184.363 69.6274 183.509 68.7731 182.441 68.295C180.419 67.178 179.665 67.595 179.665 67.595Z" fill="#F8C6A3"/>
<path fill-rule="evenodd" clip-rule="evenodd" d="M182.443 68.303C180.419 67.179 179.665 67.596 179.665 67.596C179.665 67.596 179.545 67.76 179.272 68.08L179.1 68.28C179.581 69.4515 180.469 70.4101 181.6 70.98C182.4 71.4406 183.277 71.7507 184.188 71.895C184.446 71.5216 184.664 71.1229 184.841 70.705C184.364 69.6369 183.51 68.7819 182.443 68.303H182.443Z" fill="#F2A37C"/>
<path fill-rule="evenodd" clip-rule="evenodd" d="M182.443 68.303C180.419 67.179 179.665 67.596 179.665 67.596C179.665 67.596 179.591 67.696 179.444 67.875C180.92 69.3373 182.802 70.3219 184.844 70.7011C184.366 69.6339 183.511 68.7802 182.443 68.303L182.443 68.303Z" fill="#DD8964"/>
<path fill-rule="evenodd" clip-rule="evenodd" d="M181.676 77.955C181.78 79.7017 180.461 81.2078 178.716 81.336C176.077 81.551 174.246 81.252 170.206 77.955C166.166 74.658 164.066 73.033 160.35 73.655C159.111 73.955 154.91 77.779 154.856 78.749C154.802 79.719 159.596 84.081 160.08 84.458C160.564 84.835 163.374 84.106 166.292 85.331C168.825 86.394 171.232 88.874 176.805 88.012C182.378 87.15 184.898 81.358 184.096 77.953C184.097 77.955 183.397 77.103 181.676 77.955Z" fill="#EA4D5F"/>
<path fill-rule="evenodd" clip-rule="evenodd" d="M167.838 76.07C167.076 75.4756 166.268 74.9426 165.422 74.476C162.919 77.2443 159.87 79.4654 156.468 81C157.497 82.1 158.768 83.294 159.509 83.961C162.809 81.9458 165.648 79.2569 167.838 76.07V76.07Z" fill="#EFF8FC"/>
<path fill-rule="evenodd" clip-rule="evenodd" d="M171.556 87.782C172.665 88.0891 173.814 88.224 174.964 88.182C175.597 85.8752 175.748 83.4627 175.408 81.095C174.807 80.9134 174.227 80.6697 173.677 80.368C173.553 82.9701 172.827 85.5078 171.556 87.782V87.782Z" fill="#EFF8FC"/>
<path fill-rule="evenodd" clip-rule="evenodd" d="M179.299 87.222C180.054 86.8433 180.748 86.3539 181.358 85.77C180.993 84.1338 180.292 82.5913 179.3 81.24C179.108 81.2859 178.913 81.3173 178.717 81.334C178.285 81.369 177.877 81.388 177.475 81.385C178.707 83.0778 179.348 85.1289 179.299 87.222Z" fill="#EFF8FC"/>
<path fill-rule="evenodd" clip-rule="evenodd" d="M168.152 86.283C169.801 84.1468 170.993 81.6938 171.652 79.077C171.201 78.748 170.721 78.377 170.204 77.955L169.69 77.537C168.509 80.309 166.731 82.7867 164.484 84.794C165.103 84.9109 165.708 85.0915 166.29 85.333C166.927 85.6168 167.548 85.9339 168.152 86.283V86.283Z" fill="#EFF8FC"/>
<path fill-rule="evenodd" clip-rule="evenodd" d="M181.484 79.121C181.337 79.661 181.049 80.1522 180.649 80.544C181.746 81.0817 182.696 81.8771 183.418 82.862C183.692 82.2643 183.902 81.6396 184.046 80.998C183.324 80.2094 182.453 79.5715 181.484 79.121Z" fill="#EFF8FC"/>
<g style="mix-blend-mode:multiply" opacity="0.2">
<path fill-rule="evenodd" clip-rule="evenodd" d="M181.678 77.954C181.662 78.8302 181.361 79.6773 180.822 80.368C181.383 79.8541 181.782 79.188 181.971 78.451C181.971 78.451 183.638 78.982 184.098 77.951L182.874 77.585C182.456 77.6329 182.05 77.7581 181.678 77.954V77.954Z" fill="#242357"/>
</g>
<path fill-rule="evenodd" clip-rule="evenodd" d="M181.672 72.977C182.192 72.76 183.635 72.5 184.328 73.222C185.039 73.9947 185.234 75.1108 184.828 76.079C184.666 76.7327 184.421 77.3631 184.099 77.955C183.351 78.3915 182.427 78.3915 181.679 77.955C180.65 77.0385 180.061 75.7262 180.06 74.348C180.46 73.7509 181.018 73.2764 181.672 72.977Z" fill="#EA4D5F"/>
<path fill-rule="evenodd" clip-rule="evenodd" d="M184.253 77.655C183.243 76.2918 181.771 75.3439 180.112 74.989C180.171 75.4005 180.279 75.8034 180.434 76.189C181.556 76.6445 182.564 77.3409 183.387 78.229C183.638 78.1826 183.879 78.0897 184.096 77.955C184.096 77.955 184.159 77.853 184.253 77.655Z" fill="#EFF8FC"/>
<path fill-rule="evenodd" clip-rule="evenodd" d="M182.075 72.8521C181.938 72.8831 181.805 72.9249 181.675 72.977C181.336 73.1396 181.02 73.3446 180.733 73.5871C182.326 73.9566 183.761 74.8208 184.833 76.056C184.974 75.5955 185.03 75.1128 184.997 74.632C184.182 73.8102 183.179 73.1993 182.075 72.8521Z" fill="#EFF8FC"/>
<g style="mix-blend-mode:multiply" opacity="0.2">
<path fill-rule="evenodd" clip-rule="evenodd" d="M181.28 76.05C181.013 74.508 181.564 73.095 182.326 72.801C182.103 72.8361 181.884 72.8951 181.673 72.977C181.019 73.2761 180.46 73.7506 180.059 74.348C180.06 75.7266 180.649 77.0389 181.679 77.9553C182.044 78.1513 182.451 78.2604 182.865 78.274C181.948 77.9056 181.329 77.0372 181.28 76.05Z" fill="#242357"/>
</g>
<g style="mix-blend-mode:multiply" opacity="0.2">
<path fill-rule="evenodd" clip-rule="evenodd" d="M176.416 86.9791C171.556 86.873 170.045 85.1451 166.274 83.4661C164.448 82.653 161.462 82.8441 160.725 82.5071C158.985 81.358 157.375 80.0224 155.925 78.524C155.72 77.924 158.274 74.985 158.274 74.985C156.684 76.276 154.889 78.119 154.854 78.7511C154.8 79.72 159.594 84.0831 160.078 84.4601C160.562 84.8371 163.372 84.108 166.29 85.3331C168.823 86.3961 171.23 88.8761 176.803 88.0141C179.127 87.654 181.198 86.3493 182.526 84.4091C181.059 86.2489 178.757 87.217 176.416 86.9791Z" fill="#242357"/>
</g>
<path opacity="0.15" fill-rule="evenodd" clip-rule="evenodd" d="M163.97 74.399C162.919 74.0793 161.812 73.9802 160.721 74.108C159.746 74.561 158.902 75.254 158.267 76.122C157.082 77.58 160.024 76.038 164.154 77.76C168.284 79.482 173.601 82.269 174.661 81.926C175.721 81.583 172.626 80.454 170.199 78.497C168.177 76.867 165.699 74.924 163.97 74.399Z" fill="white"/>
<path opacity="0.15" fill-rule="evenodd" clip-rule="evenodd" d="M184.097 73.383C183.39 72.919 183.097 74.168 183.164 75.511C183.231 76.854 183.391 77.911 183.777 77.742C184.408 76.9633 184.75 75.9902 184.744 74.988C184.698 74.063 184.451 73.616 184.097 73.383Z" fill="white"/>
<path fill-rule="evenodd" clip-rule="evenodd" d="M178.99 68.404C178.581 68.0761 178.048 67.9468 177.534 68.051C176.054 68.5938 174.7 69.4322 173.555 70.5151C173.365 70.894 173.419 72.5291 175.387 74.81C176.355 75.81 177.545 76.5675 178.861 77.021C179.366 77.179 179.071 74.19 181.672 72.979C181.672 72.979 181.811 72.415 180.555 71.879C179.413 71.3883 178.569 70.3877 178.277 69.179L178.99 68.404Z" fill="#DEF1F8"/>
<path fill-rule="evenodd" clip-rule="evenodd" d="M178.276 69.171L178.99 68.404C178.581 68.0761 178.048 67.9468 177.534 68.051C176.054 68.5938 174.7 69.4322 173.555 70.5151C173.365 70.894 173.419 72.5291 175.387 74.81C174.287 73.243 174.434 70.95 175.3 70.284C176.166 69.618 177.433 68.598 177.867 69.707C178.301 70.8161 180.058 71.607 180.058 71.607C179.145 71.0852 178.497 70.1994 178.276 69.171Z" fill="#CCE4EA"/>
<path fill-rule="evenodd" clip-rule="evenodd" d="M180.204 72.4191C180.655 72.166 181.724 72.4761 180.938 72.996C179.983 73.8393 179.276 74.926 178.89 76.14C178.752 76.54 177.822 76.187 177.075 75.717C176.433 75.3961 175.91 74.8778 175.584 74.238C175.515 74.019 177.167 75.109 178.132 74.296C179.097 73.483 179.297 72.927 180.204 72.4191Z" fill="#E9F6FB"/>
<path fill-rule="evenodd" clip-rule="evenodd" d="M173.684 62.875C173.314 64.0592 173.595 65.3505 174.422 66.275C174.89 66.743 175.849 67.038 176.169 66.029C176.533 66.8427 177.251 67.4431 178.117 67.656C178.846 67.9275 179.664 67.6355 180.057 66.964L177.719 63.372L173.684 62.875Z" fill="#D65132"/>
<path fill-rule="evenodd" clip-rule="evenodd" d="M173.684 62.875C173.571 63.3444 173.533 63.8287 173.571 64.31C174.45 65.1198 175.74 65.2983 176.806 64.758C177.221 66.0419 178.201 67.0653 179.465 67.536C179.715 67.4065 179.921 67.2061 180.057 66.96L177.72 63.368L173.684 62.875Z" fill="#BA422B"/>
<path fill-rule="evenodd" clip-rule="evenodd" d="M189.603 48.916C192.763 48.916 196.635 51.141 197.525 54.616C198.415 58.091 198.148 60.981 198.593 62.983C198.99 64.3316 198.958 65.7702 198.502 67.1C198.396 67.3458 198.274 67.5846 198.138 67.815C196.92 69.5938 195.026 70.7953 192.897 71.139C190.008 71.7497 187.004 71.5203 184.241 70.478C180.814 69.054 178.52 67.478 177.051 63.65C175.408 59.1808 177.025 54.1674 180.968 51.499C183.495 49.7343 186.522 48.8287 189.603 48.916Z" fill="#F8C6A3"/>
<path fill-rule="evenodd" clip-rule="evenodd" d="M177.774 59.801C177.841 60.408 178.396 60.984 179.474 60.587C180.552 60.19 182.552 58.343 182.94 53.451L177.774 59.801Z" fill="#F2A37C"/>
<path fill-rule="evenodd" clip-rule="evenodd" d="M189.604 48.916C188.254 48.8543 186.904 49.011 185.604 49.38C184.318 50.18 183.167 50.855 183.167 50.855C184.52 53.6144 186.99 55.663 189.951 56.484C192.002 56.926 194.46 56.924 195.371 55.666C196.226 54.487 194.917 53.272 194.917 53.272C195.651 53.7676 196.5 54.0677 197.382 54.144C196.274 50.944 192.618 48.916 189.604 48.916Z" fill="#F2A37C"/>
<circle opacity="0.5" cx="183.433" cy="63.389" r="3.495" fill="#EE9681"/>
<path opacity="0.5" fill-rule="evenodd" clip-rule="evenodd" d="M195.375 63.484C195.378 65.289 196.753 66.7955 198.55 66.963C198.953 65.6676 198.968 64.2828 198.593 62.979C198.416 62.0094 198.309 61.0281 198.273 60.043C196.599 60.3328 195.376 61.7849 195.375 63.484Z" fill="#EE9681"/>
<path fill-rule="evenodd" clip-rule="evenodd" d="M198.465 62.249C197.927 62.6637 197.268 62.8897 196.589 62.892C194.733 62.8137 193.278 61.2701 193.31 59.413C193.272 59.3991 193.236 59.3824 193.201 59.363C193.11 59.31 193.02 59.252 192.931 59.195C192.931 59.242 192.924 59.287 192.924 59.334C192.924 59.357 192.924 59.38 192.924 59.403C192.797 59.3511 192.661 59.3275 192.524 59.334C192.175 59.3258 191.83 59.4103 191.524 59.579C191.524 59.497 191.537 59.417 191.537 59.334V59.322C191.481 59.3727 191.43 59.4276 191.383 59.486C191.321 59.5709 191.236 59.6359 191.138 59.673C190.956 61.8729 189.071 63.5377 186.866 63.4465C184.66 63.3552 182.919 61.5404 182.92 59.333C182.92 59.219 182.928 59.106 182.937 58.994C182.885 58.97 182.836 58.9401 182.792 58.905L182.581 58.741C182.573 58.803 182.567 58.866 182.561 58.928L176.691 58.052L176.998 59.744L182.573 59.878C182.847 62.0484 184.642 63.7072 186.827 63.8094C189.012 63.9115 190.954 62.4274 191.43 60.292C191.774 60.1168 192.154 60.0257 192.541 60.026C192.695 60.0227 192.849 60.0488 192.994 60.103C193.273 61.8862 194.782 63.2176 196.587 63.271C197.28 63.2705 197.957 63.0615 198.53 62.671L198.465 62.249Z" fill="#F2A37C"/>
<path fill-rule="evenodd" clip-rule="evenodd" d="M198.466 62.249C197.928 62.6635 197.269 62.8895 196.59 62.892C196.208 62.8911 195.829 62.8178 195.474 62.676C195.444 62.8026 195.421 62.9308 195.405 63.06C195.785 63.2013 196.186 63.2741 196.59 63.275C197.283 63.2744 197.96 63.0653 198.533 62.675L198.488 62.393C198.488 62.362 198.478 62.332 198.473 62.301L198.466 62.249Z" fill="#EB7C74"/>
<path opacity="0.3" fill-rule="evenodd" clip-rule="evenodd" d="M198.377 63.749C198.824 65.6268 198.175 67.5963 196.7 68.841C194.566 70.776 190.66 71.541 188.1 71.387C189.703 71.5629 191.324 71.4785 192.9 71.137C195.029 70.7934 196.923 69.5919 198.141 67.813C198.278 67.5827 198.399 67.3439 198.505 67.098C198.961 65.7682 198.993 64.3296 198.596 62.981C198.441 62.1687 198.344 61.3462 198.308 60.52L198.246 60.476C198.342 61.029 198.134 61.932 198.377 63.749Z" fill="white"/>
<path fill-rule="evenodd" clip-rule="evenodd" d="M186.898 63.828C186.914 63.7019 186.923 63.5751 186.925 63.448C184.927 63.3911 183.258 61.9077 182.967 59.93C182.841 59.947 182.717 59.9707 182.594 60.001C182.917 62.1479 184.728 63.7577 186.898 63.828Z" fill="#EB7C74"/>
<path opacity="0.3" fill-rule="evenodd" clip-rule="evenodd" d="M183.012 60.413C183.012 60.813 182.506 61.131 181.881 61.131C181.256 61.131 180.75 60.809 180.75 60.413C180.75 60.017 181.256 59.695 181.881 59.695C182.506 59.695 183.012 60.013 183.012 60.413Z" fill="white"/>
<g style="mix-blend-mode:multiply" opacity="0.7">
<path fill-rule="evenodd" clip-rule="evenodd" d="M186.77 62.556C188.863 62.4953 190.545 60.8105 190.602 58.717C190.873 56.189 189.024 53.757 185.924 54.675C182.824 55.593 182.756 59.283 183.693 60.716C184.347 61.805 185.501 62.4954 186.77 62.556Z" fill="url(#paint1_linear)"/>
</g>
<g style="mix-blend-mode:multiply" opacity="0.7">
<path fill-rule="evenodd" clip-rule="evenodd" d="M197.535 54.651C196.815 54.4197 196.041 54.4228 195.323 54.66C192.478 55.503 192.416 58.889 193.276 60.204C193.876 61.2042 194.936 61.8379 196.101 61.892C196.929 61.8899 197.727 61.5827 198.343 61.029C198.274 58.8825 198.003 56.7471 197.535 54.6511V54.651Z" fill="url(#paint2_linear)"/>
</g>
<path fill-rule="evenodd" clip-rule="evenodd" d="M176.693 57.705C177.271 58.2695 177.651 59.0064 177.775 59.805C177.892 60.627 179.207 60.955 180.981 58.452C182.476 56.2074 183.239 53.5548 183.164 50.859C184.771 52.557 186.66 53.9643 188.746 55.019C191.996 56.585 193.914 56.166 194.854 55.769C195.404 55.5377 195.813 55.0617 195.96 54.4834C196.106 53.9052 195.972 53.2918 195.598 52.827C196.997 53.712 198.649 54.1109 200.298 53.962C203.391 53.845 204.644 52.357 203.782 51.221C202.92 50.085 201.266 49.195 198.873 48.474C198.873 48.474 201.629 48.245 201.473 46.718C201.317 45.191 197.419 41.464 189.979 42.494C181.619 43.651 180.358 47.924 180.358 47.924C179.209 47.411 177.951 47.1875 176.696 47.273C174.922 47.287 173.755 47.998 173.637 48.399C173.519 48.8 173.776 49.031 174.585 49.341C175.211 49.5672 175.823 49.8293 176.419 50.126C174.959 50.5894 173.612 51.3516 172.462 52.364C170.462 54.086 170.49 55.664 170.7 55.887C171.093 56.304 172.122 55.322 173.609 55.126C173.022 56.4858 172.763 57.9646 172.853 59.443C173.125 61.436 176.693 57.705 176.693 57.705Z" fill="#E26644"/>
<path fill-rule="evenodd" clip-rule="evenodd" d="M185.262 48.029C184.308 48.194 183.625 48.988 184.937 49.457C187.563 50.4032 190.058 51.6802 192.362 53.257C194.44 54.942 196.078 55.269 195.562 53.649C194.835 51.7368 193.456 50.143 191.668 49.149C189.722 48.0594 187.462 47.6644 185.262 48.029V48.029Z" fill="#EE7249"/>
<path fill-rule="evenodd" clip-rule="evenodd" d="M193.597 56.09C191.427 55.952 187.346 54.107 183.367 49.281C183.309 49.2209 183.22 49.2029 183.144 49.2358C183.067 49.2688 183.019 49.3457 183.023 49.429C183.072 49.81 183.128 50.312 183.163 50.855C184.77 52.5529 186.659 53.9603 188.745 55.015C190.225 55.8326 191.91 56.2059 193.597 56.09V56.09Z" fill="#D65132"/>
<path fill-rule="evenodd" clip-rule="evenodd" d="M185.406 43.637C181.12 45.33 180.355 47.92 180.355 47.92C179.206 47.407 177.948 47.1835 176.693 47.269C174.919 47.283 173.752 47.994 173.634 48.395C173.516 48.796 173.773 49.027 174.582 49.337C175.208 49.5632 175.82 49.8253 176.416 50.122C174.956 50.5855 173.608 51.3476 172.459 52.36C170.459 54.082 170.487 55.66 170.697 55.883C171.09 56.3 172.119 55.318 173.606 55.122C173.019 56.4818 172.76 57.9606 172.85 59.439C173.124 61.439 176.692 57.706 176.692 57.706C177.023 58.04 177.294 58.4292 177.492 58.856C177.705 58.466 177.862 58.081 177.716 57.856C176.843 56.3319 176.726 54.4894 177.399 52.867C177.795 51.4486 178.797 50.2775 180.137 49.667C180.671 49.4101 181.257 49.2824 181.849 49.294C181.914 49.2959 181.976 49.2636 182.011 49.209C182.035 49.1482 182.031 49.0803 182.002 49.022C181.777 48.3327 181.772 47.5905 181.987 46.898C182.368 45.752 183.179 44.77 185.406 43.637Z" fill="#D65132"/>
<path fill-rule="evenodd" clip-rule="evenodd" d="M177.552 58.991C177.659 59.2509 177.733 59.5229 177.774 59.801C177.839 60.254 178.284 60.565 178.956 60.331C178.747 60.3939 178.52 60.3384 178.364 60.186C178.297 60.0617 178.27 59.9193 178.287 59.779L179.803 59.815C180.024 59.6255 180.229 59.4177 180.416 59.194L179.065 59.094L177.552 58.991Z" fill="#D65132"/>
<path fill-rule="evenodd" clip-rule="evenodd" d="M200.295 53.957C202.32 53.88 203.55 53.215 203.921 52.447C202.221 53.847 198.266 52.815 196.589 52.026C195.721 51.5956 194.878 51.1162 194.064 50.59C194.715 51.2273 195.236 51.9855 195.597 52.822C196.995 53.7067 198.647 54.1056 200.295 53.957H200.295Z" fill="#D65132"/>
<path fill-rule="evenodd" clip-rule="evenodd" d="M201.47 46.714C201.397 46.3162 201.212 45.9473 200.938 45.65C201.844 46.966 200.251 47.331 199.138 47.55C198.025 47.769 195.054 47.939 195.054 47.939C195.054 47.939 197.971 48.3 198.87 48.467C198.871 48.468 201.623 48.241 201.47 46.714Z" fill="#D65132"/>
<path fill-rule="evenodd" clip-rule="evenodd" d="M175.35 48.653C174.244 48.37 174.25 47.832 174.78 47.593C174.111 47.836 173.7 48.166 173.633 48.393C173.516 48.793 173.772 49.025 174.581 49.335C175.207 49.5611 175.819 49.8232 176.415 50.12C176.964 49.9587 177.525 49.8463 178.094 49.784C177.214 49.3269 176.296 48.9484 175.35 48.653Z" fill="#BA422B"/>
<path fill-rule="evenodd" clip-rule="evenodd" d="M172.057 54.648C171.139 55.097 170.61 55.348 170.684 54.905C170.558 55.2197 170.562 55.5715 170.696 55.883C171.09 56.3 172.118 55.318 173.605 55.122C173.816 54.5646 174.113 54.0434 174.484 53.577C173.655 53.8882 172.845 54.2458 172.057 54.648V54.648Z" fill="#BA422B"/>
<path fill-rule="evenodd" clip-rule="evenodd" d="M195.713 43.166C192.721 42.315 186.487 42.795 183.861 45.224C183.003 46.017 185.278 45.511 188.154 45.554C190.859 45.6412 193.551 45.9596 196.201 46.506C199.084 47.143 200.994 46.968 200.793 46.231C200.592 45.494 198.618 43.993 195.713 43.166Z" fill="#EE7249"/>
<path fill-rule="evenodd" clip-rule="evenodd" d="M203.718 52.142C203.96 51.531 202.693 50.207 200.807 49.476C198.921 48.745 196.201 48.24 195.593 48.47C194.919 48.726 196.985 51.555 200.039 52.465C202.687 53.254 203.513 52.658 203.718 52.142Z" fill="#EE7249"/>
<path fill-rule="evenodd" clip-rule="evenodd" d="M182.429 50.787C182.029 50.247 180.538 50.848 179.637 52.387C178.486 54.356 178.918 57.419 179.726 57.702C180.534 57.985 181.682 56.08 182.1 54.474C182.518 52.868 182.779 51.261 182.429 50.787Z" fill="#EE7249"/>
<path fill-rule="evenodd" clip-rule="evenodd" d="M175.086 47.8123C174.679 47.9581 174.978 48.5138 175.678 48.53C176.378 48.5462 179.078 48.3702 179.043 48.0785C179.008 47.7868 176.859 47.171 175.086 47.8123Z" fill="#E26644"/>
<path fill-rule="evenodd" clip-rule="evenodd" d="M171.14 54.647C171.24 54.771 171.801 54.576 172.322 54.064C172.843 53.552 174.357 51.815 174.485 51.595C174.613 51.375 173.417 51.785 172.322 52.824C171.227 53.863 171.03 54.514 171.14 54.647Z" fill="#E26644"/>
<path fill-rule="evenodd" clip-rule="evenodd" d="M198.238 49.018C199.366 49.297 201.994 49.801 203.508 51.663C202.828 51.0759 202.058 50.6004 201.229 50.254C200.255 49.7882 199.257 49.3755 198.238 49.018V49.018Z" fill="#F49A6E"/>
<path fill-rule="evenodd" clip-rule="evenodd" d="M187.463 43.637C190.363 42.9639 193.38 42.9639 196.28 43.637C197.729 44.0039 199.051 44.7574 200.105 45.817C198.507 45.0469 196.807 44.5104 195.056 44.224C195.942 44.2595 196.823 44.375 197.688 44.569C196.173 43.7866 194.493 43.3753 192.788 43.369C191.008 43.2563 189.222 43.3463 187.463 43.637H187.463Z" fill="#F49A6E"/>
<path fill-rule="evenodd" clip-rule="evenodd" d="M191.285 49.21C193.071 50.078 194.492 51.5518 195.294 53.369C194.778 52.5366 194.17 51.765 193.481 51.069C192.797 50.3949 192.063 49.7735 191.285 49.21V49.21Z" fill="#F49A6E"/>
<path fill-rule="evenodd" clip-rule="evenodd" d="M182.289 51.447C182.252 53.5459 181.577 55.5839 180.354 57.29C180.177 56.5514 180.177 55.7816 180.354 55.043C180.381 55.5138 180.443 55.9819 180.542 56.443C181.502 54.9349 182.1 53.2249 182.289 51.447Z" fill="#F49A6E"/>
<g style="mix-blend-mode:multiply" opacity="0.5">
<path fill-rule="evenodd" clip-rule="evenodd" d="M188.135 54.244C188.083 53.759 187.054 53.291 185.587 54.115C184.567 54.5629 183.854 55.5107 183.708 56.615C183.808 57.001 185.144 56.44 186.076 56.075C187.643 55.456 188.286 55.683 188.135 54.244Z" fill="#F2A37C"/>
</g>
<g style="mix-blend-mode:multiply" opacity="0.5">
<path fill-rule="evenodd" clip-rule="evenodd" d="M197.971 56.871C197.906 56.421 197.825 55.959 197.726 55.484C197.395 55.0159 196.96 54.6312 196.455 54.36C194.987 53.536 194.438 54.249 194.431 54.738C194.417 55.838 195.386 55.998 196.304 56.313C196.831 56.5763 197.392 56.7641 197.971 56.871V56.871Z" fill="#F2A37C"/>
</g>
<path fill-rule="evenodd" clip-rule="evenodd" d="M188.308 53.665C188.241 53.065 187.05 52.765 185.583 53.585C184.563 54.0329 183.851 54.9807 183.704 56.085C183.804 56.471 185.14 55.909 186.072 55.544C187.642 54.925 188.446 54.903 188.308 53.665Z" fill="#D65132"/>
<path fill-rule="evenodd" clip-rule="evenodd" d="M186.629 54.647C185.273 55.088 184.518 55.27 184.58 54.776C184.642 54.282 185.373 53.696 185.58 53.585C184.56 54.0329 183.848 54.9806 183.701 56.085C183.801 56.471 185.137 55.909 186.069 55.544C187.64 54.929 188.444 54.906 188.305 53.667C188.234 53.979 187.984 54.207 186.629 54.647Z" fill="#BA422B"/>
<path fill-rule="evenodd" clip-rule="evenodd" d="M194.434 54.206C194.44 53.717 194.99 53.0061 196.458 53.828C197.926 54.65 198.217 55.828 198.114 56.2131C198.011 56.5981 197.255 56.106 196.307 55.7811C195.384 55.466 194.415 55.31 194.434 54.206Z" fill="#D65132"/>
<path fill-rule="evenodd" clip-rule="evenodd" d="M197.547 55.773C197.137 55.526 196.011 55.096 195.322 54.66C194.633 54.224 194.84 53.569 195.385 53.46C195.156 53.4146 194.919 53.4712 194.736 53.6149C194.552 53.7586 194.441 53.9752 194.43 54.208C194.416 55.308 195.385 55.469 196.303 55.783C197.25 56.108 198.003 56.601 198.11 56.215C198.147 55.9472 198.104 55.6744 197.986 55.431C198.104 55.678 197.956 56.021 197.547 55.773Z" fill="#BA422B"/>
<path fill-rule="evenodd" clip-rule="evenodd" d="M196.589 62.924C194.97 63.0407 193.445 62.155 192.744 60.6911C192.042 59.2273 192.308 57.4835 193.414 56.2952C194.52 55.1069 196.24 54.7162 197.75 55.3102C199.261 55.9041 200.254 57.3619 200.254 58.985C200.325 61.083 198.687 62.8437 196.589 62.924V62.924ZM196.589 55.424C195.124 55.3062 193.737 56.0985 193.094 57.42C192.451 58.7416 192.683 60.3221 193.68 61.4021C194.677 62.4821 196.234 62.8407 197.603 62.3054C198.971 61.7702 199.872 60.4507 199.872 58.981C199.94 57.0959 198.474 55.5092 196.589 55.428V55.424Z" fill="#19313A"/>
<ellipse cx="186.77" cy="59.7203" rx="2.83764" ry="2.83764" fill="white"/>
<path opacity="0.2" fill-rule="evenodd" clip-rule="evenodd" d="M185.615 61.44C184.604 60.3667 184.458 58.7418 185.26 57.505L185.16 57.386C184.174 58.0679 183.723 59.2969 184.034 60.4551C184.345 61.6134 185.352 62.4506 186.547 62.546C187.743 62.6413 188.869 61.9743 189.36 60.88C188.414 61.9527 186.833 62.1891 185.615 61.44Z" fill="#BAC4CA"/>
<path fill-rule="evenodd" clip-rule="evenodd" d="M183.971 60.185C184.025 59.0545 184.675 58.0375 185.678 57.513C187.017 56.8409 188.648 57.3349 189.388 58.637C189.42 58.3833 189.356 58.1266 189.208 57.918C188.446 56.8094 187.008 56.3932 185.772 56.924C184.375 57.3281 183.569 58.7873 183.971 60.185Z" fill="#19313A"/>
<path fill-rule="evenodd" clip-rule="evenodd" d="M189.605 59.72C189.605 59.4435 189.565 59.1682 189.484 58.9033C189.356 58.4682 189.018 58.1267 188.584 57.994C188.039 57.8163 187.44 57.9373 187.007 58.313C186.165 59.12 185.972 60.3921 186.535 61.413C186.738 61.7056 187.023 61.9309 187.355 62.06C187.843 62.2295 188.385 62.1043 188.749 61.738C189.295 61.2082 189.603 60.4806 189.605 59.72Z" fill="#19313A"/>
<path fill-rule="evenodd" clip-rule="evenodd" d="M187.025 61.888C187.13 61.96 187.242 62.0197 187.36 62.066C187.848 62.2357 188.39 62.1105 188.754 61.744C189.005 61.4972 189.209 61.206 189.354 60.885C188.764 61.5471 187.912 61.9143 187.025 61.888Z" fill="#002030"/>
<path fill-rule="evenodd" clip-rule="evenodd" d="M189.058 58.444C188.876 58.2579 188.603 58.1937 188.358 58.2794C188.112 58.3652 187.938 58.5853 187.912 58.844C187.805 59.59 188.312 60.407 188.93 60.407C189.338 60.407 189.53 60.019 189.472 59.437C189.459 59.0667 189.312 58.7137 189.058 58.444V58.444Z" fill="white"/>
<path fill-rule="evenodd" clip-rule="evenodd" d="M193.249 59.45C193.233 59.3334 193.175 59.2267 193.086 59.15C192.924 59.0301 192.724 58.9732 192.524 58.99C192.153 58.9788 191.786 59.0739 191.467 59.264C191.332 59.3447 191.24 59.4821 191.218 59.638L191.148 60.121C191.555 59.8322 192.042 59.6792 192.541 59.684C193.201 59.684 193.341 60.048 193.341 60.048L193.249 59.45Z" fill="#19313A"/>
<path fill-rule="evenodd" clip-rule="evenodd" d="M192.527 58.985C192.156 58.9736 191.789 59.0687 191.47 59.259C191.335 59.3396 191.243 59.4771 191.221 59.633L191.151 60.116C191.558 59.8271 192.045 59.6742 192.544 59.679C193.204 59.679 193.344 60.043 193.344 60.043C193.109 59.316 192.027 59.578 191.984 59.398C191.941 59.218 192.116 59.02 192.527 58.985Z" fill="#002030"/>
<path fill-rule="evenodd" clip-rule="evenodd" d="M182.836 58.622L176.692 57.705L176.999 59.397L182.729 59.534C182.729 59.534 182.819 58.994 182.836 58.622Z" fill="#19313A"/>
<path fill-rule="evenodd" clip-rule="evenodd" d="M182.76 59.336L178.078 58.703C178.021 58.399 177.899 58.1111 177.718 57.86L176.692 57.707L176.999 59.399L182.729 59.536C182.729 59.536 182.742 59.454 182.76 59.336Z" fill="#002030"/>
<path fill-rule="evenodd" clip-rule="evenodd" d="M192.065 60.638C191.613 61.1981 191.488 61.9536 191.733 62.63C191.918 63.2889 192.518 63.7451 193.202 63.747C193.902 63.771 194.281 63.365 194.264 62.847C194.249 62.398 193.709 62.389 193.202 61.773C192.735 61.205 192.636 60.367 192.065 60.638Z" fill="#EE9681"/>
<path fill-rule="evenodd" clip-rule="evenodd" d="M193.019 63.2929C192.206 63.0475 191.657 62.2881 191.68 61.439C191.606 61.8349 191.625 62.2426 191.736 62.6299C191.921 63.2889 192.521 63.7451 193.205 63.7469C193.905 63.771 194.284 63.3649 194.266 62.847C194.148 63.2009 193.762 63.4309 193.019 63.2929Z" fill="#EB7C74"/>
<path fill-rule="evenodd" clip-rule="evenodd" d="M194.087 63.2037C194.062 63.2026 194.036 63.1993 194.011 63.1941C193.931 63.1783 193.855 63.1458 193.785 63.0983C193.598 62.9693 193.458 62.7684 193.39 62.5318C193.362 62.4425 193.286 62.1568 193.457 62.2127C193.492 62.2259 193.525 62.2477 193.553 62.2765C193.634 62.3499 193.718 62.4169 193.799 62.4872C193.939 62.6116 194.129 62.6866 194.266 62.8159C194.317 62.8601 194.347 62.9282 194.349 63.001C194.341 63.0849 194.292 63.1564 194.223 63.1861C194.179 63.2029 194.133 63.2089 194.087 63.2037V63.2037Z" fill="#F8C6A3"/>
<path fill-rule="evenodd" clip-rule="evenodd" d="M187.038 63.484C184.553 63.484 182.538 61.4693 182.538 58.984C182.538 56.4987 184.553 54.484 187.038 54.484C189.523 54.484 191.538 56.4987 191.538 58.984C191.538 61.4693 189.523 63.484 187.038 63.484ZM187.038 54.866C184.764 54.866 182.92 56.7097 182.92 58.984C182.92 61.2583 184.764 63.102 187.038 63.102C189.312 63.102 191.156 61.2583 191.156 58.984C191.153 56.7114 189.311 54.8698 187.038 54.867L187.038 54.866Z" fill="#19313A"/>
<path fill-rule="evenodd" clip-rule="evenodd" d="M190.834 66.226C189.711 66.0714 188.628 65.7031 187.643 65.141C186.697 64.641 185.973 64.569 185.806 65.299C185.563 66.355 186.598 69.045 190.072 69.566C191.727 69.8969 193.444 69.5185 194.807 68.523C195.262 68.1691 195.604 67.6887 195.788 67.142C195.988 66.506 195.737 65.742 194.171 66.042C193.075 66.2739 191.949 66.336 190.834 66.226Z" fill="#C9434D"/>
<path fill-rule="evenodd" clip-rule="evenodd" d="M190.356 66.16C189.407 65.9545 188.493 65.6112 187.643 65.141C186.697 64.641 185.973 64.569 185.806 65.299C185.772 66.9654 186.791 68.4726 188.351 69.061C189.556 68.6302 190.361 67.489 190.363 66.209C190.363 66.192 190.356 66.176 190.356 66.16Z" fill="#7C1423"/>
<path fill-rule="evenodd" clip-rule="evenodd" d="M193.597 66.145C192.684 66.2899 191.755 66.3172 190.835 66.226C189.811 66.092 188.821 65.7706 187.913 65.278C187.933 65.6633 188.029 66.0408 188.195 66.389C188.84 66.9144 189.617 67.253 190.441 67.368C191.321 67.5413 192.233 67.4397 193.053 67.077C193.259 66.7813 193.441 66.4697 193.597 66.145Z" fill="white"/>
<path opacity="0.2" fill-rule="evenodd" clip-rule="evenodd" d="M189.934 66.353C191.101 66.6298 192.316 66.6339 193.484 66.365C193.551 66.238 193.597 66.145 193.597 66.145C192.684 66.2899 191.755 66.3172 190.835 66.226C189.811 66.092 188.821 65.7706 187.913 65.278H187.913C187.933 65.6633 188.029 66.0408 188.195 66.389C188.612 66.7689 189.117 67.0393 189.664 67.176C189.16 66.9981 188.75 66.6236 188.526 66.138C188.462 65.849 188.815 66.066 189.934 66.353Z" fill="#BAC4CA"/>
<path fill-rule="evenodd" clip-rule="evenodd" d="M192.28 69.579C191.98 68.93 190.201 67.267 186.62 67.721C187.492 68.7553 188.728 69.4157 190.073 69.566C190.804 69.6815 191.548 69.6859 192.28 69.579Z" fill="#EC6469"/>
<path fill-rule="evenodd" clip-rule="evenodd" d="M191.775 69.632C190.742 69.5783 189.729 69.3182 188.798 68.867C187.843 68.23 188.067 67.655 188.898 67.717C188.14 67.6151 187.373 67.6151 186.615 67.717C187.487 68.7514 188.723 69.4117 190.068 69.562C190.633 69.6494 191.205 69.6729 191.775 69.632V69.632Z" fill="#DB545B"/>
<path opacity="0.2" fill-rule="evenodd" clip-rule="evenodd" d="M190.643 68.41C190.118 68.1157 189.531 67.9483 188.93 67.921C188.099 68.005 189.763 68.672 190.487 68.936C191.413 69.274 191.523 68.867 190.643 68.41Z" fill="white"/>
<path opacity="0.2" fill-rule="evenodd" clip-rule="evenodd" d="M192.061 69.2274C191.776 68.9901 191.399 69.0004 191.399 69.2892C191.399 69.5033 191.617 69.8565 192.061 70.0293C192.504 70.202 192.519 69.609 192.061 69.2274Z" fill="white"/>
<path fill-rule="evenodd" clip-rule="evenodd" d="M197.875 61.09C198.494 60.413 198.448 58.113 197.575 57.434C196.515 56.6224 195.003 56.7971 194.157 57.8288C193.311 58.8606 193.435 60.3776 194.439 61.2576C195.442 62.1376 196.962 62.0635 197.875 61.09Z" fill="white"/>
<path opacity="0.2" fill-rule="evenodd" clip-rule="evenodd" d="M197.875 61.09C198.076 60.8258 198.201 60.5119 198.237 60.182C198.007 60.7025 197.562 61.0968 197.017 61.2617C196.472 61.4266 195.883 61.3456 195.403 61.04C194.065 60.149 194.237 58.086 194.777 57.293C193.964 57.7998 193.516 58.7312 193.629 59.683C193.743 60.6348 194.396 61.4354 195.305 61.7374C196.215 62.0393 197.217 61.7882 197.877 61.093L197.875 61.09Z" fill="#BAC4CA"/>
<path fill-rule="evenodd" clip-rule="evenodd" d="M193.655 59.915C193.608 58.8881 194.16 57.9272 195.071 57.45C195.872 57.0948 196.792 57.128 197.565 57.54C197.757 57.6523 197.911 57.8204 198.006 58.022C197.985 57.6748 197.815 57.3538 197.539 57.142C196.841 56.6519 195.938 56.5627 195.158 56.907C193.914 57.3246 193.242 58.6695 193.655 59.915Z" fill="#19313A"/>
<path fill-rule="evenodd" clip-rule="evenodd" d="M197.628 57.887C197.162 57.7483 196.657 57.8556 196.287 58.172C195.552 58.8764 195.383 59.9872 195.876 60.878C196.201 61.3683 196.789 61.6155 197.367 61.505C197.818 61.337 198.15 60.9478 198.245 60.476C198.463 59.7771 198.422 59.0232 198.13 58.352C198.036 58.133 197.854 57.964 197.628 57.887Z" fill="#19313A"/>
<path fill-rule="evenodd" clip-rule="evenodd" d="M198.244 60.475C198.298 60.2937 198.335 60.108 198.355 59.92C198.069 60.7563 197.296 61.3289 196.413 61.359C196.704 61.5179 197.042 61.5693 197.367 61.504C197.818 61.3357 198.149 60.9466 198.244 60.475Z" fill="#002030"/>
<path fill-rule="evenodd" clip-rule="evenodd" d="M197.87 58.209C197.71 58.0475 197.472 57.9926 197.258 58.0682C197.044 58.1437 196.893 58.3361 196.87 58.562C196.776 59.214 197.221 59.929 197.761 59.929C198.118 59.929 198.285 59.59 198.235 59.081C198.224 58.7554 198.094 58.4452 197.87 58.209Z" fill="white"/>
<path fill-rule="evenodd" clip-rule="evenodd" d="M176.692 57.709C175.448 57.0275 173.912 57.1931 172.842 58.124C172.182 58.9891 171.923 60.0949 172.13 61.1631C172.337 62.2313 172.991 63.1602 173.926 63.716C175.143 64.3846 176.643 64.2481 177.72 63.371C177.993 61.045 178.003 58.562 176.692 57.709Z" fill="#F8C6A3"/>
<path fill-rule="evenodd" clip-rule="evenodd" d="M174.26 61.582C174.26 61.1404 174.526 60.7423 174.933 60.5732C175.341 60.4041 175.811 60.4975 176.123 60.8097C176.435 61.1219 176.528 61.5914 176.359 61.9992C176.19 62.4069 175.791 62.6725 175.35 62.672C174.748 62.6714 174.26 62.1837 174.26 61.582Z" fill="#DD8964"/>
<path fill-rule="evenodd" clip-rule="evenodd" d="M175.35 62.672C176.453 62.4059 177.171 61.341 177.003 60.2183C176.835 59.0956 175.838 58.2869 174.705 58.355C173.866 58.389 173.191 59.0564 173.147 59.895C173.457 59.2032 174.239 58.8576 174.959 59.095C176.294 59.451 175.859 61.447 175.417 61.581C174.975 61.715 175.35 62.672 175.35 62.672Z" fill="#DD8964"/>
<path fill-rule="evenodd" clip-rule="evenodd" d="M175.274 57.56C174.493 57.4253 173.693 57.656 173.104 58.186C172.389 58.8694 172.076 59.8723 172.275 60.841C172.275 60.864 172.335 60.901 172.339 60.87C172.342 59.8181 172.817 58.823 173.632 58.158C174.132 57.8423 174.701 57.6494 175.29 57.595C175.315 57.586 175.285 57.56 175.274 57.56Z" fill="#FDDEBC"/>
<path fill-rule="evenodd" clip-rule="evenodd" d="M178.1 63.717C177.954 63.333 177.792 62.672 177.792 62.672C177.448 62.9839 177.047 63.2272 176.612 63.389C175.426 63.8257 174.104 63.6918 173.03 63.026C173.285 63.3076 173.59 63.5398 173.93 63.711C174.916 64.2473 176.101 64.2685 177.106 63.768C178.576 67.505 180.856 69.068 184.246 70.474C185.13 70.8284 186.051 71.0836 186.991 71.235C182.897 70.4974 179.508 67.6315 178.1 63.717H178.1Z" fill="#F2A37C"/>
<path fill-rule="evenodd" clip-rule="evenodd" d="M189.45 70.024C188.815 69.8635 188.206 69.6126 187.643 69.279C188.047 69.8659 188.681 70.2545 189.388 70.349C190.142 70.5915 190.961 70.5423 191.681 70.211C190.932 70.2586 190.18 70.1956 189.45 70.024Z" fill="#F2A37C"/>
<path fill-rule="evenodd" clip-rule="evenodd" d="M160.721 95.275C160.699 96.77 160.185 100.788 163.269 103.919C166.353 107.05 172.289 105.835 173.479 105.555C174.38 105.386 175.299 105.339 176.212 105.415C176.847 105.402 178.501 104.994 178.782 103.733C177.62 104.263 176.247 103.764 175.698 102.611C174.265 100.19 174.305 97.1714 175.803 94.79C177.191 92.658 180.165 92.196 180.977 92.098C180.762 91.4314 180.148 90.9752 179.448 90.963C178.724 90.871 176.859 91.738 174.298 92.482C170.47 93.594 165.506 95.362 160.721 95.275Z" fill="#4477BB"/>
<path fill-rule="evenodd" clip-rule="evenodd" d="M176.435 91.922C175.059 92.514 173.457 94.828 173.09 96.944C173.604 95.4978 174.432 94.1831 175.514 93.094C176.229 92.4901 177.008 91.9664 177.837 91.532C178.001 91.394 177.355 91.525 176.435 91.922Z" fill="#71ABDE"/>
<path fill-rule="evenodd" clip-rule="evenodd" d="M173.483 105.554C174.383 105.385 175.303 105.338 176.216 105.414C176.851 105.401 178.505 104.993 178.786 103.732C177.933 104.127 176.924 103.951 176.256 103.289L175.585 103.599C175.585 103.599 175.112 104.573 174.033 103.366C172.556 101.712 172.843 98.1299 172.843 98.1299C172.105 102.391 173.943 104.094 173.713 104.217C173.483 104.34 169.402 105.388 166.576 103.632C163.75 101.876 164.402 96.6269 165.942 95.9409C168.011 95.1437 170.03 94.2197 171.986 93.174L171.986 93.174C168.576 94.202 164.586 95.345 160.724 95.274C160.702 96.769 160.188 100.787 163.272 103.918C166.356 107.049 172.292 105.834 173.483 105.554Z" fill="#3E65AE"/>
<path fill-rule="evenodd" clip-rule="evenodd" d="M176.726 92.983C177.888 92.5515 179.103 92.28 180.338 92.176C179.87 91.624 178.411 91.84 176.726 92.983Z" fill="#295296"/>
<path fill-rule="evenodd" clip-rule="evenodd" d="M180.982 92.098C182.14 91.923 186.582 91.743 188.911 93.077C190.853 94.0348 191.905 96.1819 191.473 98.304C191.282 100.304 178.786 103.733 178.786 103.733C178.786 103.733 178.386 104.577 176.915 104.278C175.444 103.979 174.384 102.618 174.058 99.843C173.731 97.068 175.037 94.129 176.725 92.986C177.805 92.3227 179.076 92.0387 180.337 92.179L180.982 92.098Z" fill="#F8C6A3"/>
<path fill-rule="evenodd" clip-rule="evenodd" d="M182.529 97.764C181.022 98.2673 179.644 99.0959 178.493 100.191C176.512 101.879 175.442 102.191 174.734 100.291C174.148 98.0607 174.553 95.6861 175.845 93.776C174.463 95.4787 173.818 97.6621 174.053 99.842C174.379 102.618 175.441 103.978 176.91 104.277C178.379 104.576 178.782 103.732 178.782 103.732C178.782 103.732 180.323 99.241 182.529 97.764Z" fill="#F2A37C"/>
<path fill-rule="evenodd" clip-rule="evenodd" d="M178.786 103.732C178.182 104.132 177.555 104.432 176.914 104.627C178.384 105.118 178.786 103.732 178.786 103.732Z" fill="#295296"/>
<path fill-rule="evenodd" clip-rule="evenodd" d="M191.473 98.303C191.29 100.864 188.588 110.403 187.998 112.866C187.483 115.012 187.162 116.311 187.162 116.311C183.873 118.911 180.61 120.277 177.372 120.33C177.372 120.33 177.53 115.004 177.53 112.007C177.4 109.098 177.782 106.189 178.66 103.412C178.972 102.502 180.467 99.049 182.535 97.765C185.288 96.053 188.005 97.675 191.473 98.303Z" fill="#F8C6A3"/>
<path fill-rule="evenodd" clip-rule="evenodd" d="M182.648 112.186C180.261 112.507 179.643 112.186 179.136 109.623C178.629 107.06 179.248 102.029 179.997 100.629C179.464 101.512 179.016 102.443 178.658 103.41C177.78 106.187 177.398 109.096 177.528 112.005C177.528 113.622 177.482 115.916 177.44 117.687L179.67 117.377L187.045 115.511C187.045 115.511 187.22 115.361 187.445 115.132C187.585 114.558 187.771 113.79 187.993 112.864L188.044 112.653C186.32 112.012 184.455 111.85 182.648 112.186Z" fill="#F2A37C"/>
<path fill-rule="evenodd" clip-rule="evenodd" d="M189.201 99.454C188.558 99.2588 187.979 98.8968 187.522 98.405C187.042 97.853 186.839 97.124 186.574 97.27C186.044 97.564 186.309 99.685 187.399 100.399C188.076 100.914 188.984 101.009 189.754 100.647C190.137 100.454 190.606 99.837 189.201 99.454Z" fill="#F2A37C"/>
<path opacity="0.3" fill-rule="evenodd" clip-rule="evenodd" d="M191.473 98.303C191.904 96.1825 190.852 94.0377 188.912 93.08C187.36 92.3576 185.667 91.9877 183.956 91.997C185.808 92.156 189.817 93.345 190.678 95.968C190.896 97.1068 190.905 98.2758 190.706 99.418C190.306 103.375 189.045 108.862 189.044 108.867C190.051 105.394 190.862 101.867 191.473 98.3029L191.473 98.303Z" fill="white"/>
<path fill-rule="evenodd" clip-rule="evenodd" d="M187.161 116.311C187.331 115.6 187.592 114.914 187.937 114.269C188.144 113.993 188.144 113.511 186.869 113.236C184.445 112.981 181.994 113.227 179.669 113.959C177.155 114.786 176.669 115.681 176.811 116.059C177.242 117.439 177.431 118.883 177.37 120.328C180.602 120.288 183.866 118.905 187.161 116.311Z" fill="#EFF8FC"/>
<path fill-rule="evenodd" clip-rule="evenodd" d="M187.714 114.697C185.688 114.367 183.614 114.481 181.635 115.03C177.984 115.96 177.071 117.035 177.071 117.035C177.152 117.397 177.234 117.827 177.297 118.281C178.607 117.395 180.082 116.783 181.634 116.481C183.456 115.997 185.353 115.857 187.226 116.068C187.359 115.601 187.522 115.143 187.714 114.697V114.697Z" fill="#4477BB"/>
<g style="mix-blend-mode:multiply" opacity="0.2">
<path fill-rule="evenodd" clip-rule="evenodd" d="M181.761 119.465C181.509 119.366 181.229 119.371 180.981 119.479C179.429 119.994 179.081 118.825 179.076 118.034C179.089 117.201 178.973 116.372 178.731 115.575C178.606 115.296 178.6 114.977 178.716 114.694C178.832 114.41 179.059 114.187 179.344 114.075C177.115 114.869 176.681 115.702 176.813 116.064C177.244 117.444 177.433 118.888 177.372 120.333C178.874 120.302 180.36 120.008 181.761 119.465V119.465Z" fill="#242357"/>
</g>
<path fill-rule="evenodd" clip-rule="evenodd" d="M180.288 119.049C179.333 119.671 178.063 119.478 177.336 118.601C177.336 118.601 177.073 118.758 176.789 119.579C176.505 120.4 176.165 122.334 176.789 123.379C177.987 122.768 179.258 122.311 180.572 122.021C182.674 121.443 184.677 120.548 186.51 119.368C187.489 118.705 191.596 116.336 194.659 117.82C193.725 116.671 192.279 116.066 190.806 116.209C187.995 116.241 187.159 116.309 187.159 116.309C185.307 116.364 183.472 116.68 181.709 117.247C180.606 117.754 181.047 118.512 180.288 119.049Z" fill="#4477BB"/>
<g style="mix-blend-mode:multiply" opacity="0.2">
<path fill-rule="evenodd" clip-rule="evenodd" d="M186.512 119.364C187.249 118.881 188.031 118.471 188.847 118.137C188.659 117.286 188.371 116.443 187.955 116.269L187.591 116.285C186.832 116.802 186.366 117.65 186.336 118.568C185.112 119.082 183.921 119.67 182.768 120.328C181.243 120.996 180.387 120.904 180.027 120.644C179.521 120.279 179.554 119.344 179.554 119.344C178.734 119.577 177.855 119.281 177.342 118.6C177.342 118.6 177.079 118.757 176.795 119.578C176.511 120.399 176.171 122.333 176.795 123.378C177.993 122.767 179.264 122.311 180.578 122.02C182.679 121.441 184.68 120.545 186.512 119.364Z" fill="#242357"/>
</g>
<path fill-rule="evenodd" clip-rule="evenodd" d="M194.658 117.813C191.758 116.413 187.926 118.458 186.697 119.244C186.5 118.172 186.831 117.071 187.586 116.286C188.914 115.039 193.899 115.134 194.658 117.813Z" fill="#EFF8FC"/>
<path fill-rule="evenodd" clip-rule="evenodd" d="M194.658 117.814C193.422 115.555 189.911 116.414 188.984 116.783C188.057 117.152 186.847 117.42 187.005 117.046C186.689 117.733 186.582 118.498 186.697 119.246C187.926 118.459 191.758 116.413 194.658 117.814Z" fill="#A9CBD3"/>
<path fill-rule="evenodd" clip-rule="evenodd" d="M194.658 117.815C194.159 117.253 193.464 116.901 192.716 116.832C190.856 116.647 188.991 117.123 187.449 118.178C185.898 119.192 184.258 120.062 182.549 120.778C180.949 121.478 177.607 121.729 176.594 122.998C176.38 123.518 176.313 124.087 176.4 124.643C176.38 125.665 177.036 126.578 178.011 126.886C179.117 127.328 182.338 127.549 186.35 126.223C190.362 124.897 193.007 124.704 194.657 122.338C195.695 121.009 195.696 119.144 194.658 117.815Z" fill="#DEF1F8"/>
<mask id="mask0" style="mask-type:alpha" maskUnits="userSpaceOnUse" x="176" y="116" width="20" height="12">
<path fill-rule="evenodd" clip-rule="evenodd" d="M194.658 117.815C194.159 117.253 193.464 116.901 192.716 116.832C190.856 116.647 188.991 117.123 187.449 118.178C185.898 119.192 184.258 120.062 182.549 120.778C180.949 121.478 177.607 121.729 176.594 122.998C176.38 123.518 176.313 124.087 176.4 124.643C176.38 125.665 177.036 126.578 178.011 126.886C179.117 127.328 182.338 127.549 186.35 126.223C190.362 124.897 193.007 124.704 194.657 122.338C195.695 121.009 195.696 119.144 194.658 117.815Z" fill="white"/>
</mask>
<g mask="url(#mask0)">
<path d="M195.817 119.244C195.131 117.896 192.946 116.782 189.912 117.751C186.812 118.741 186.271 120.068 182.97 121.316C179.669 122.564 176.81 122.168 175.945 124.982" stroke="#4477BB"/>
</g>
<path fill-rule="evenodd" clip-rule="evenodd" d="M192.624 118.037C190.473 118.006 188.372 118.692 186.654 119.986C185.151 121.075 183.463 121.885 181.673 122.375C180.331 122.618 179.015 122.984 177.74 123.468C176.93 123.765 176.436 124.586 176.552 125.441C176.782 126.128 177.327 126.663 178.018 126.881C179.124 127.323 182.345 127.544 186.356 126.218C190.367 124.892 193.013 124.699 194.663 122.333C195.308 121.476 195.563 120.387 195.363 119.333C195.034 118.686 194.591 118.086 192.624 118.037Z" fill="#E8914F"/>
<path fill-rule="evenodd" clip-rule="evenodd" d="M180.544 126.652C179.76 126.691 178.975 126.59 178.228 126.352C177.711 126.199 177.296 125.812 177.108 125.307C177.064 124.722 177.42 124.18 177.976 123.99C178.714 123.659 179.491 123.424 180.289 123.29C180.733 123.2 181.236 123.098 181.83 122.927C183.686 122.42 185.435 121.58 186.992 120.449C188.555 119.27 190.455 118.625 192.413 118.608C192.478 118.608 192.544 118.608 192.613 118.608C194.287 118.648 194.6 119.098 194.813 119.52C194.953 120.398 194.728 121.296 194.191 122.005C193.039 123.657 191.339 124.146 188.767 124.888C187.992 125.111 187.114 125.364 186.175 125.675C184.362 126.297 182.461 126.626 180.545 126.652L180.544 126.652Z" fill="#D1783B"/>
<mask id="mask1" style="mask-type:alpha" maskUnits="userSpaceOnUse" x="177" y="118" width="18" height="9">
<path fill-rule="evenodd" clip-rule="evenodd" d="M180.544 126.652C179.76 126.691 178.975 126.59 178.228 126.352C177.711 126.199 177.296 125.812 177.108 125.307C177.064 124.722 177.42 124.18 177.976 123.99C178.714 123.659 179.491 123.424 180.289 123.29C180.733 123.2 181.236 123.098 181.83 122.927C183.686 122.42 185.435 121.58 186.992 120.449C188.555 119.27 190.455 118.625 192.413 118.608C192.478 118.608 192.544 118.608 192.613 118.608C194.287 118.648 194.6 119.098 194.813 119.52C194.953 120.398 194.728 121.296 194.191 122.005C193.039 123.657 191.339 124.146 188.767 124.888C187.992 125.111 187.114 125.364 186.175 125.675C184.362 126.297 182.461 126.626 180.545 126.652L180.544 126.652Z" fill="white"/>
</mask>
<g mask="url(#mask1)">
<path fill-rule="evenodd" clip-rule="evenodd" d="M193.517 123.467L194.145 118.697L194.524 118.747L193.895 123.517L193.517 123.467Z" fill="#C66D32"/>
<path fill-rule="evenodd" clip-rule="evenodd" d="M191.896 124.407L192.691 118.371L193.07 118.421L192.274 124.457L191.896 124.407Z" fill="#C66D32"/>
<path fill-rule="evenodd" clip-rule="evenodd" d="M190.334 124.95L191.145 118.708L191.523 118.758L190.713 124.999L190.334 124.95Z" fill="#C66D32"/>
<path fill-rule="evenodd" clip-rule="evenodd" d="M188.763 125.42L189.649 118.906L190.027 118.957L189.14 125.471L188.763 125.42Z" fill="#C66D32"/>
<path fill-rule="evenodd" clip-rule="evenodd" d="M187.208 125.92L187.997 119.754L188.376 119.802L187.587 125.968L187.208 125.92Z" fill="#C66D32"/>
<path fill-rule="evenodd" clip-rule="evenodd" d="M185.675 126.141L186.39 120.721L186.768 120.771L186.053 126.191L185.675 126.141Z" fill="#C66D32"/>
<path fill-rule="evenodd" clip-rule="evenodd" d="M184.128 126.573L184.756 121.804L185.135 121.854L184.506 126.623L184.128 126.573Z" fill="#C66D32"/>
<path fill-rule="evenodd" clip-rule="evenodd" d="M182.553 127.023L183.182 122.253L183.56 122.303L182.931 127.073L182.553 127.023Z" fill="#C66D32"/>
<path fill-rule="evenodd" clip-rule="evenodd" d="M181.063 127.069L181.621 122.836L182 122.885L181.441 127.119L181.063 127.069Z" fill="#C66D32"/>
<path fill-rule="evenodd" clip-rule="evenodd" d="M179.568 126.994L180.064 123.226L180.443 123.275L179.946 127.044L179.568 126.994Z" fill="#C66D32"/>
<path fill-rule="evenodd" clip-rule="evenodd" d="M178.108 126.622L178.507 123.593L178.886 123.643L178.486 126.672L178.108 126.622Z" fill="#C66D32"/>
<path fill-rule="evenodd" clip-rule="evenodd" d="M177.223 124.529L177.371 124.178L183.444 126.751L183.295 127.102L177.223 124.529Z" fill="#C66D32"/>
<path fill-rule="evenodd" clip-rule="evenodd" d="M179.419 123.589L179.566 123.237L186.299 126.053L186.152 126.405L179.419 123.589Z" fill="#C66D32"/>
<path fill-rule="evenodd" clip-rule="evenodd" d="M182.44 122.82L182.592 122.471L189.029 125.273L188.877 125.622L182.44 122.82Z" fill="#C66D32"/>
<path fill-rule="evenodd" clip-rule="evenodd" d="M184.631 121.875L184.78 121.524L191.586 124.417L191.437 124.768L184.631 121.875Z" fill="#C66D32"/>
<path fill-rule="evenodd" clip-rule="evenodd" d="M186.624 120.692L186.777 120.342L193.57 123.316L193.417 123.666L186.624 120.692Z" fill="#C66D32"/>
<path fill-rule="evenodd" clip-rule="evenodd" d="M188.43 119.656L188.578 119.304L194.996 122.014L194.847 122.366L188.43 119.656Z" fill="#C66D32"/>
<path fill-rule="evenodd" clip-rule="evenodd" d="M190.979 118.782L191.127 118.43L195.489 120.272L195.341 120.624L190.979 118.782Z" fill="#C66D32"/>
</g>
<path fill-rule="evenodd" clip-rule="evenodd" d="M194.813 119.522C194.795 119.487 194.776 119.452 194.756 119.422C194.745 120.13 194.513 120.817 194.092 121.386C192.94 123.038 191.241 123.528 188.667 124.269C187.892 124.492 187.014 124.745 186.075 125.056C184.262 125.678 182.362 126.008 180.446 126.033C179.662 126.072 178.878 125.971 178.13 125.733C177.71 125.598 177.353 125.317 177.124 124.941C177.096 125.063 177.091 125.19 177.108 125.314C177.296 125.819 177.711 126.206 178.228 126.359C178.976 126.597 179.76 126.698 180.544 126.659V126.659C182.46 126.633 184.361 126.304 186.174 125.682C187.113 125.371 187.991 125.118 188.766 124.896C191.339 124.155 193.038 123.665 194.191 122.013C194.73 121.302 194.954 120.402 194.813 119.522H194.813Z" fill="#C66D32"/>
<path d="M195.365 118.607L193.365 123.377" stroke="#E8914F"/>
<path d="M193.744 118.28L191.744 124.316" stroke="#E8914F"/>
<path d="M192.177 118.618L190.177 124.858" stroke="#E8914F"/>
<path d="M190.61 118.816L188.61 125.331" stroke="#E8914F"/>
<path d="M189.055 119.662L187.055 125.828" stroke="#E8914F"/>
<path d="M187.524 120.63L185.524 126.051" stroke="#E8914F"/>
<path d="M185.975 121.713L183.975 126.483" stroke="#E8914F"/>
<path d="M184.401 122.163L182.401 126.933" stroke="#E8914F"/>
<path d="M182.911 122.745L180.911 126.978" stroke="#E8914F"/>
<path d="M181.415 123.135L179.415 126.904" stroke="#E8914F"/>
<path d="M179.956 123.502L177.956 126.531" stroke="#E8914F"/>
<path d="M176.954 124.238L183.026 126.811" stroke="#E8914F"/>
<path d="M179.149 123.297L185.879 126.11" stroke="#E8914F"/>
<path d="M182.173 122.529L188.611 125.331" stroke="#E8914F"/>
<path d="M184.363 121.583L191.171 124.479" stroke="#E8914F"/>
<path d="M186.357 120.402L193.151 123.376" stroke="#E8914F"/>
<path d="M188.161 119.364L194.578 122.073" stroke="#E8914F"/>
<path d="M190.71 118.49L195.073 120.49" stroke="#E8914F"/>
<ellipse cx="271.254" cy="31.3499" rx="13.5615" ry="13.5615" fill="#7A60A6"/>
<path fill-rule="evenodd" clip-rule="evenodd" d="M284.449 28.237C283.7 25.0516 281.82 22.2469 279.157 20.345C280.221 25.0304 279.003 29.9431 275.872 33.588C270.647 40.101 261.122 39.843 260.698 39.828C264.661 44.7669 271.516 46.3021 277.206 43.5251C282.897 40.748 285.904 34.3994 284.449 28.237Z" fill="#6D5298"/>
<path fill-rule="evenodd" clip-rule="evenodd" d="M283.437 28.252C284.693 33.5854 282.356 39.1185 277.658 41.9377C272.96 44.7569 266.978 44.2152 262.862 40.598C267.851 43.1237 273.885 42.275 277.984 38.4711C282.083 34.6673 283.378 28.7132 281.231 23.55C282.287 24.9462 283.038 26.5479 283.437 28.252V28.252Z" fill="#5F4589"/>
<path opacity="0.25" fill-rule="evenodd" clip-rule="evenodd" d="M259.543 30.054C259.148 28.378 259.802 26.6293 261.2 25.6233C262.597 24.6174 264.463 24.5523 265.927 25.4584C267.391 26.3645 268.165 28.0633 267.888 29.7628C267.611 31.4622 266.338 32.8275 264.662 33.222C262.374 33.7606 260.082 32.3423 259.543 30.054Z" fill="#F298BB"/>
<path opacity="0.25" fill-rule="evenodd" clip-rule="evenodd" d="M260.504 28.6049C260.276 27.6388 260.653 26.6307 261.459 26.0508C262.264 25.4708 263.34 25.4332 264.184 25.9554C265.028 26.4777 265.474 27.457 265.315 28.4367C265.155 29.4164 264.421 30.2035 263.455 30.4309C262.136 30.7415 260.815 29.924 260.504 28.6049Z" fill="#F298BB"/>
<path opacity="0.25" fill-rule="evenodd" clip-rule="evenodd" d="M270.047 24.808C269.652 23.132 270.306 21.3833 271.703 20.3773C273.101 19.3713 274.967 19.3062 276.431 20.2123C277.895 21.1184 278.669 22.8173 278.392 24.5167C278.115 26.2162 276.842 27.5815 275.166 27.976C272.878 28.5145 270.586 27.0962 270.047 24.808Z" fill="#F298BB"/>
<path opacity="0.25" fill-rule="evenodd" clip-rule="evenodd" d="M271.296 23.115C271.084 22.213 271.436 21.2719 272.188 20.7306C272.94 20.1892 273.944 20.1542 274.732 20.6418C275.52 21.1295 275.936 22.0437 275.787 22.9583C275.638 23.8729 274.953 24.6077 274.051 24.82C272.82 25.1099 271.586 24.3466 271.296 23.115Z" fill="#F298BB"/>
<path opacity="0.25" fill-rule="evenodd" clip-rule="evenodd" d="M264.81 22.288C264.615 21.4611 264.937 20.5982 265.627 20.1016C266.316 19.6051 267.237 19.5728 267.959 20.0199C268.682 20.467 269.063 21.3053 268.927 22.1438C268.79 22.9823 268.161 23.6557 267.334 23.85C266.206 24.1151 265.076 23.416 264.81 22.288Z" fill="#F298BB"/>
<path opacity="0.25" fill-rule="evenodd" clip-rule="evenodd" d="M265.27 21.766C265.127 21.1585 265.504 20.5502 266.111 20.4072C266.719 20.2641 267.327 20.6406 267.47 21.2481C267.613 21.8555 267.236 22.4639 266.629 22.607C266.337 22.6757 266.03 22.6257 265.775 22.468C265.521 22.3103 265.339 22.0577 265.27 21.766Z" fill="#F298BB"/>
<path opacity="0.15" fill-rule="evenodd" clip-rule="evenodd" d="M275.739 20.348C271.439 18.6528 266.541 19.7149 263.33 23.039C259.58 26.9596 258.773 32.8459 261.33 37.631C260.699 33.432 261.82 29.1581 264.43 25.809C268.047 21.422 273.303 20.586 275.739 20.348Z" fill="#D6B6D8"/>
<path fill-rule="evenodd" clip-rule="evenodd" d="M275.739 20.348C275.739 20.348 268.247 18.072 263.396 23.721C258.545 29.37 260.776 36.698 261.325 37.631C261.325 37.631 256.757 29.896 262.735 23.142C268.315 16.837 275.739 20.348 275.739 20.348Z" fill="#D7CEE7"/>
<path fill-rule="evenodd" clip-rule="evenodd" d="M294.65 44.708C293.911 46.264 287.869 45.048 279.682 41.964C276.3 40.689 272.55 39.096 268.657 37.248C264.625 35.334 260.9 33.366 257.697 31.49C250.329 27.176 245.716 23.358 246.443 21.824C247.135 20.369 252.468 21.343 259.858 23.998C259.605 24.3927 259.371 24.7999 259.158 25.218C256.158 24.353 254.173 24.153 253.858 24.818C253.525 25.518 255.096 27.042 257.909 28.943C261.628 31.3651 265.515 33.5183 269.54 35.3859C273.415 37.2616 277.414 38.872 281.507 40.206C284.967 41.281 287.298 41.583 287.644 40.856C287.973 40.162 286.435 38.656 283.67 36.783C283.856 36.3605 284.02 35.929 284.162 35.49C291.083 39.622 295.352 43.229 294.65 44.708Z" fill="#D5E9F9"/>
<path fill-rule="evenodd" clip-rule="evenodd" d="M294.34 45.142C293.601 46.698 287.559 45.482 279.372 42.398C275.99 41.123 272.24 39.53 268.347 37.682C264.315 35.768 260.59 33.7999 257.387 31.924C250.019 27.6099 245.405 23.792 246.134 22.2579C246.826 20.8029 252.191 21.7949 259.581 24.45C259.342 24.8456 259.127 25.2554 258.937 25.6769C255.937 24.812 253.864 24.587 253.547 25.255C253.215 25.9549 254.785 27.479 257.598 29.38C261.317 31.8021 265.203 33.9552 269.229 35.8229C273.104 37.6986 277.102 39.309 281.195 40.643C284.655 41.7179 286.986 42.02 287.332 41.293C287.661 40.599 286.204 39.146 283.44 37.269C283.625 36.846 283.84 36.446 283.983 36.007C290.91 40.135 295.042 43.663 294.34 45.142Z" fill="#F49639"/>
<path fill-rule="evenodd" clip-rule="evenodd" d="M294.65 44.708C293.911 46.264 287.869 45.048 279.682 41.964C276.3 40.689 272.55 39.096 268.657 37.248C264.625 35.334 260.9 33.366 257.697 31.49C250.329 27.176 245.716 23.358 246.443 21.824C247.135 20.369 252.468 21.343 259.858 23.998C259.605 24.3927 259.371 24.7999 259.158 25.218C256.158 24.353 254.173 24.153 253.858 24.818C253.525 25.518 255.096 27.042 257.909 28.943C261.628 31.3651 265.515 33.5183 269.54 35.3859C273.415 37.2616 277.414 38.872 281.507 40.206C284.967 41.281 287.298 41.583 287.644 40.856C287.973 40.162 286.435 38.656 283.67 36.783C283.856 36.3605 284.02 35.929 284.162 35.49C291.083 39.622 295.352 43.229 294.65 44.708Z" fill="#FFE568"/>
<path fill-rule="evenodd" clip-rule="evenodd" d="M291.46 40.832C292.837 42.169 295.074 43.739 293.96 44.68C292.846 45.621 284.102 43.927 267.46 36.187C267.46 36.187 284.352 42.724 288.719 43.493C293.055 44.255 293.663 43.669 291.46 40.832Z" fill="#FCC231"/>
<path fill-rule="evenodd" clip-rule="evenodd" d="M254.416 22.579C252.575 22.206 248.036 21.094 247.166 21.94C246.296 22.786 251.486 27.21 253.36 28.266C253.36 28.266 248.704 24.507 248.502 22.774C248.351 21.481 254.416 22.579 254.416 22.579Z" fill="#FFEDB2"/>
<path fill-rule="evenodd" clip-rule="evenodd" d="M259.122 24.702C257.955 24.3397 256.767 24.0527 255.563 23.843C253.847 23.571 251.799 23.298 252.01 24.465C252.221 25.632 253.783 27.065 256.948 29.265C260.113 31.465 265.457 34.465 265.457 34.465C265.457 34.465 257.635 30.535 254.639 28.435C251.643 26.335 249.839 24.209 250.253 23.295C250.775 22.154 255.522 22.92 259.341 24.427L259.122 24.702Z" fill="#FFDA60"/>
<path fill-rule="evenodd" clip-rule="evenodd" d="M142.56 47.521C142.56 47.521 128.635 49.562 117.365 45.57C117.049 45.4566 116.876 45.1169 116.971 44.795C117.157 44.155 117.471 43.029 117.779 41.695C118.499 38.58 142.56 47.521 142.56 47.521Z" fill="#A9CBD3"/>
<path fill-rule="evenodd" clip-rule="evenodd" d="M117.78 41.695C117.589 42.521 117.397 43.266 117.233 43.866C128.486 48.329 142.56 47.521 142.56 47.521C142.56 47.521 118.5 38.58 117.78 41.695Z" fill="#8CB8BF"/>
<path fill-rule="evenodd" clip-rule="evenodd" d="M120.072 28.575C120.072 28.575 120.179 34.636 118.522 37.754C116.865 40.872 136.881 47.836 142.56 47.52C142.56 47.52 134.766 40.953 130.493 35.7C127.718 32.437 124.119 29.9767 120.072 28.575Z" fill="#CCE4EA"/>
<path opacity="0.5" fill-rule="evenodd" clip-rule="evenodd" d="M118.523 37.754C116.867 40.872 136.882 47.836 142.561 47.52C133.49 44.613 121.061 34.293 121.061 34.293C120.992 32.3503 120.658 30.4261 120.068 28.574C120.068 28.574 120.179 34.634 118.523 37.754Z" fill="#A9CBD3"/>
<path fill-rule="evenodd" clip-rule="evenodd" d="M113.968 30.247C113.388 30.347 110.691 30.8 107.841 31.047C103.559 31.421 99.8617 30.689 100.341 31.837C100.769 32.862 107.46 39.428 117.063 43.037C126.666 46.646 138.663 47.837 142.563 47.523C137.038 45.4831 131.717 42.9303 126.669 39.898C118.719 35.052 115.632 29.946 113.968 30.247Z" fill="#F7FCFE"/>
<path fill-rule="evenodd" clip-rule="evenodd" d="M142.561 47.52C139.338 44.116 136.553 40.3222 134.272 36.227C130.278 28.519 129.331 22.605 128.908 22.04C128.485 21.475 126.708 22.827 123.866 25.006C122.504 26.0871 121.235 27.281 120.074 28.575C120.074 28.575 133.568 44.412 142.561 47.52Z" fill="#F7FCFE"/>
<path fill-rule="evenodd" clip-rule="evenodd" d="M111.83 31.456C107.208 32.612 101.615 31.664 102.905 33.249C104.195 34.834 116.941 44.682 135.174 46.309C135.174 46.309 119.242 42.346 112.188 38.054C103.901 33.011 106.972 33.072 108.288 32.771C109.534 32.5337 110.731 32.0892 111.83 31.456Z" fill="white"/>
<path fill-rule="evenodd" clip-rule="evenodd" d="M139.938 45.789C139.938 45.789 127.538 36.206 121.43 28.804C122.989 26.7632 124.92 25.0347 127.12 23.709C125.825 24.871 124.682 26.1926 123.72 27.642C123.352 28.361 124.079 29.872 125.309 31.455C128.212 35.208 139.938 45.789 139.938 45.789Z" fill="white"/>
<path fill-rule="evenodd" clip-rule="evenodd" d="M256.095 69.9889C256.095 69.9889 245.72 74.4419 236.162 73.6699C235.893 73.6472 235.689 73.4191 235.697 73.1499C235.71 72.6149 235.72 71.6779 235.685 70.5799C235.6 68.0169 256.095 69.9889 256.095 69.9889Z" fill="#A9CBD3"/>
<path fill-rule="evenodd" clip-rule="evenodd" d="M235.685 70.5809C235.707 71.2609 235.711 71.881 235.709 72.381C245.352 73.5209 256.097 69.994 256.097 69.994C256.097 69.994 235.6 68.0169 235.685 70.5809Z" fill="#8CB8BF"/>
<path fill-rule="evenodd" clip-rule="evenodd" d="M234.757 59.9379C234.757 59.9379 236.089 64.6149 235.448 67.3739C234.807 70.1329 251.759 71.4049 256.096 69.9899C252.006 68.0598 248.064 65.8283 244.304 63.3139C241.481 61.3562 238.184 60.1905 234.757 59.9379V59.9379Z" fill="#CCE4EA"/>
<path opacity="0.5" fill-rule="evenodd" clip-rule="evenodd" d="M235.448 67.3739C234.807 70.1319 251.759 71.4049 256.096 69.9899C248.465 69.6059 236.706 64.1669 236.706 64.1669C236.253 62.6751 235.597 61.2523 234.758 59.9379C234.758 59.9379 236.089 64.617 235.448 67.3739Z" fill="#A9CBD3"/>
<path fill-rule="evenodd" clip-rule="evenodd" d="M230.369 62.4909C229.941 62.6909 227.943 63.5909 225.784 64.3759C222.541 65.549 219.524 65.743 220.133 66.5339C220.676 67.2399 227.217 70.9509 235.405 71.7669C243.593 72.5829 253.139 71.033 256.096 69.989C251.392 69.5462 246.74 68.664 242.202 67.3539C235.042 65.2359 231.6 61.9149 230.369 62.4909Z" fill="#F7FCFE"/>
<path fill-rule="evenodd" clip-rule="evenodd" d="M256.095 69.989C252.895 68.0142 249.954 65.6472 247.341 62.9429C242.656 57.7909 240.703 53.4009 240.258 53.0499C239.813 52.699 238.714 54.114 236.958 56.3889C236.126 57.508 235.391 58.6952 234.758 59.9379C234.758 59.9379 248.484 69.433 256.095 69.989Z" fill="#F7FCFE"/>
<path fill-rule="evenodd" clip-rule="evenodd" d="M228.959 63.8699C225.615 65.718 221.083 66.1369 222.41 67.0999C223.737 68.0629 235.648 73.0699 250.118 70.5729C250.118 70.5729 236.951 70.786 230.597 68.911C223.133 66.7109 225.528 66.1239 226.482 65.6199C227.4 65.1795 228.237 64.588 228.959 63.8699Z" fill="white"/>
<path fill-rule="evenodd" clip-rule="evenodd" d="M253.705 69.188C253.705 69.188 242.115 64.316 235.856 59.836C236.645 57.9322 237.785 56.1942 239.217 54.713C238.452 55.8809 237.838 57.1413 237.389 58.464C237.252 59.097 238.127 60.119 239.407 61.093C242.438 63.4009 253.705 69.188 253.705 69.188Z" fill="white"/>
<path fill-rule="evenodd" clip-rule="evenodd" d="M107.134 69.579H101.728C101.287 65.917 98.1808 63.1613 94.4923 63.16L94.4924 59.76C94.4924 55.6134 91.1309 52.2519 86.9844 52.252C82.8379 52.2519 79.4763 55.6134 79.4763 59.76V61.9809C78.421 59.8361 76.0262 58.7019 73.6981 59.2443C71.37 59.7867 69.7231 61.8625 69.7244 64.253V69.579H63.4023C62.16 69.5795 61.1533 70.5867 61.1533 71.829C61.1539 73.0709 62.1605 74.0775 63.4025 74.078H107.133C108.375 74.078 109.383 73.0712 109.383 71.829C109.383 70.5868 108.377 69.5796 107.134 69.579Z" fill="white"/>
<circle cx="55.4254" cy="15.469" r="15.068" fill="#FFD348"/>
<g style="mix-blend-mode:multiply" opacity="0.3">
<path fill-rule="evenodd" clip-rule="evenodd" d="M51.6775 7.05997C50.6045 5.85997 48.8505 4.05197 47.4845 2.65997C46.6691 3.16508 45.9043 3.74743 45.2004 4.39898C47.6425 6.62798 49.9716 8.62997 50.6345 9.33798C51.4485 10.212 53.6344 9.25198 51.6775 7.05997Z" fill="#E85D1C"/>
<path fill-rule="evenodd" clip-rule="evenodd" d="M68.5754 22.8179C65.5094 21.011 59.7954 17.6259 57.3564 16.063C53.9404 13.8739 51.3405 14.393 50.3054 13.528C49.5554 12.9019 45.5464 8.84195 43.2104 6.65295C42.8781 7.11335 42.5719 7.59211 42.2935 8.08694C44.1595 10.1499 47.1614 13.459 47.8245 14.132C48.8015 15.1259 48.4164 16.5799 47.2524 15.543C46.5275 14.897 43.3994 12.4429 41.1404 10.6799C40.7922 11.7124 40.5575 12.7797 40.4404 13.8629C43.8084 16.8999 47.9624 19.741 49.2214 19.8709C50.6324 20.017 52.2085 17.285 53.9385 18.2509C55.2385 18.9749 62.6384 23.631 66.2745 25.921C67.171 24.9892 67.9442 23.9464 68.5754 22.8179Z" fill="#E85D1C"/>
<path fill-rule="evenodd" clip-rule="evenodd" d="M58.9913 30.108C60.8181 29.6641 62.5454 28.8812 64.0834 27.8C61.1473 26.217 56.4944 23.751 55.1664 23.289C53.1833 22.598 53.3884 26.07 51.8114 26.166C50.4244 26.25 45.6764 23.036 40.7544 18.888C40.7654 18.937 40.7744 18.988 40.7854 19.034C42.7549 27.1194 50.9059 32.0774 58.9913 30.108Z" fill="#E85D1C"/>
<path fill-rule="evenodd" clip-rule="evenodd" d="M58.1494 0.649963C58.2725 1.45796 58.8405 2.31297 60.3334 3.53497C62.6724 5.44897 64.5853 6.68297 65.3684 7.51096C66.1515 8.33897 63.9874 8.65597 65.1224 10.032C66.7487 11.4694 68.5171 12.7373 70.4005 13.816C70.3297 13.1718 70.2181 12.5329 70.0664 11.903C68.6602 6.13044 63.9929 1.72328 58.1494 0.649963Z" fill="#E85D1C"/>
<path fill-rule="evenodd" clip-rule="evenodd" d="M57.8556 9.34097C56.8716 7.92997 58.4156 6.37997 57.2686 4.74097C56.1134 3.26794 54.8782 1.85949 53.5686 0.521973C52.995 0.593437 52.4257 0.697266 51.8636 0.832977C51.2581 0.981758 50.6622 1.16778 50.0796 1.38998C51.71 3.11593 53.2175 4.95374 54.5916 6.88998C55.1915 8.02597 53.3506 9.88998 54.2345 10.569C54.9735 11.135 65.9995 18.279 69.5955 20.607C69.996 19.5059 70.2665 18.3618 70.4014 17.198C67.2936 15.438 58.6606 10.496 57.8556 9.34097Z" fill="#E85D1C"/>
</g>
<path opacity="0.3" fill-rule="evenodd" clip-rule="evenodd" d="M68.8485 8.61698C67.2006 5.36924 64.4286 2.83105 61.0485 1.47498C61.2345 1.79398 64.9094 8.26498 60.9845 16.663C57.0485 25.083 46.6794 27.313 46.2166 27.409C51.8031 31.7059 59.6208 31.5602 65.0435 27.0581C70.4659 22.556 72.0469 14.8984 68.8506 8.61698H68.8485Z" fill="#E85D1C"/>
<path opacity="0.3" fill-rule="evenodd" clip-rule="evenodd" d="M67.7473 8.88101C70.5112 14.3185 69.442 20.9191 65.103 25.206C60.764 29.493 54.151 30.4824 48.7473 27.653C54.8082 29.0709 61.1108 26.5637 64.5417 21.3701C67.9727 16.1764 67.8057 9.39549 64.1233 4.37701C65.6328 5.60864 66.8673 7.14296 67.7473 8.88101Z" fill="#E85D1C"/>
<path opacity="0.15" fill-rule="evenodd" clip-rule="evenodd" d="M57.3414 2.36498C52.2447 1.66439 47.2278 4.10316 44.6304 8.54398C41.6052 13.7711 42.2814 20.3503 46.3064 24.853C44.5182 20.4787 44.6043 15.562 46.5445 11.253C49.3044 5.55098 54.7694 3.26298 57.3414 2.36498Z" fill="#FFEDB2"/>
<path fill-rule="evenodd" clip-rule="evenodd" d="M57.3424 2.36398C57.3424 2.36398 48.6424 1.87598 44.8814 9.26398C41.1204 16.652 45.4664 23.989 46.3064 24.853C46.3064 24.853 39.3294 17.69 44.0144 8.81198C48.3874 0.52298 57.3424 2.36398 57.3424 2.36398Z" fill="#FFEDB2"/>
<circle cx="208.721" cy="9.66394" r="3.948" fill="white" fill-opacity="0.2"/>
<path fill-rule="evenodd" clip-rule="evenodd" d="M208.722 14.29C208.545 14.2902 208.375 14.2201 208.25 14.0949C208.124 13.9698 208.054 13.8 208.054 13.623V5.70496C208.054 5.5279 208.124 5.35809 208.25 5.23298C208.375 5.10786 208.545 5.0377 208.722 5.03796C209.09 5.03797 209.389 5.33659 209.389 5.70496V13.623C209.389 13.9916 209.09 14.2901 208.722 14.29H208.722Z" fill="white" fill-opacity="0.298039"/>
<path fill-rule="evenodd" clip-rule="evenodd" d="M213.347 9.66395C213.347 9.84101 213.277 10.0109 213.152 10.1362C213.027 10.2615 212.857 10.3319 212.68 10.3319H204.762C204.585 10.3319 204.415 10.2615 204.29 10.1362C204.165 10.0109 204.095 9.84102 204.095 9.66395C204.095 9.29534 204.394 8.99683 204.762 8.99695H212.68C213.048 8.99696 213.347 9.29558 213.347 9.66395Z" fill="white" fill-opacity="0.298039"/>
<path fill-rule="evenodd" clip-rule="evenodd" d="M211.522 9.66395C211.522 10.0325 211.223 10.3314 210.855 10.3319H206.589C206.22 10.3319 205.921 10.0329 205.921 9.66395C205.921 9.29545 206.22 8.99697 206.589 8.99695H210.855C211.223 8.99696 211.522 9.29558 211.522 9.66395Z" fill="white"/>
<path fill-rule="evenodd" clip-rule="evenodd" d="M208.722 12.465C208.545 12.4652 208.375 12.3949 208.249 12.2696C208.124 12.1443 208.054 11.9742 208.054 11.797V7.53195C208.054 7.16304 208.353 6.86397 208.722 6.86395C209.09 6.86452 209.389 7.16342 209.389 7.53195V11.799C209.388 12.1669 209.09 12.465 208.722 12.465Z" fill="white"/>
<circle cx="29.3359" cy="37.9609" r="3.948" fill="white" fill-opacity="0.2"/>
<path fill-rule="evenodd" clip-rule="evenodd" d="M29.3359 42.587C28.9675 42.587 28.6689 42.2883 28.6689 41.92V34.002C28.6691 33.6334 28.9678 33.3348 29.3362 33.335H29.3359C29.513 33.3347 29.6829 33.4048 29.8082 33.53C29.9335 33.6551 30.004 33.8249 30.004 34.002V41.92C30.004 42.097 29.9335 42.2669 29.8082 42.392C29.6829 42.5171 29.513 42.5872 29.3359 42.587V42.587Z" fill="white" fill-opacity="0.298039"/>
<path fill-rule="evenodd" clip-rule="evenodd" d="M33.962 37.9609C33.962 38.1381 33.8916 38.308 33.7664 38.4333C33.6411 38.5586 33.4711 38.629 33.294 38.6289H25.377C25.1999 38.6289 25.0301 38.5585 24.905 38.4332C24.7798 38.3079 24.7097 38.138 24.71 37.9609C24.7101 37.5923 25.0088 37.2938 25.3772 37.2939H33.2939C33.471 37.2937 33.6409 37.3638 33.7662 37.4889C33.8915 37.6141 33.962 37.7839 33.962 37.9609V37.9609Z" fill="white" fill-opacity="0.298039"/>
<path fill-rule="evenodd" clip-rule="evenodd" d="M32.1359 37.961C32.1362 38.138 32.066 38.3079 31.9409 38.4332C31.8158 38.5585 31.646 38.629 31.4689 38.629H27.2029C27.0258 38.629 26.8559 38.5586 26.7306 38.4333C26.6053 38.308 26.5349 38.1381 26.5349 37.961C26.535 37.7839 26.6054 37.6141 26.7307 37.4889C26.856 37.3638 27.0259 37.2937 27.203 37.2939L31.4689 37.294C31.8373 37.294 32.1359 37.5926 32.1359 37.961Z" fill="white"/>
<path fill-rule="evenodd" clip-rule="evenodd" d="M29.3359 40.7619C28.9674 40.7614 28.6689 40.4625 28.6689 40.0939V35.8289C28.6687 35.6519 28.7388 35.482 28.864 35.3567C28.9891 35.2314 29.1589 35.1609 29.3359 35.1609C29.5132 35.1607 29.6833 35.231 29.8086 35.3563C29.934 35.4816 30.0042 35.6517 30.004 35.8289V40.0949C30.0035 40.4635 29.7045 40.7619 29.336 40.7619L29.3359 40.7619Z" fill="white"/>
<path fill-rule="evenodd" clip-rule="evenodd" d="M11.0718 3.86308C11.0715 3.27596 11.5477 2.79936 12.1353 2.79907C12.7229 2.79878 13.1995 3.27491 13.1998 3.86253C13.2001 4.45016 12.724 4.92677 12.1364 4.92707C11.8541 4.92721 11.5833 4.81517 11.3836 4.61562C11.184 4.41606 11.0718 4.14535 11.0718 3.86308H11.0718Z" fill="#FFEDB2"/>
<path fill-rule="evenodd" clip-rule="evenodd" d="M54.3618 44.616C54.3623 44.0285 54.839 43.5527 55.4265 43.553C56.014 43.5534 56.49 44.0299 56.4897 44.6174C56.4896 45.2049 56.0132 45.6811 55.4257 45.681C55.1433 45.681 54.8726 45.5688 54.673 45.369C54.4735 45.1693 54.3616 44.8984 54.3618 44.616Z" fill="#FFEDB2"/>
<path fill-rule="evenodd" clip-rule="evenodd" d="M232.63 36.4111C232.63 35.9807 232.889 35.5927 233.287 35.4281C233.684 35.2634 234.142 35.3544 234.446 35.6587C234.75 35.963 234.842 36.4207 234.677 36.8183C234.512 37.2159 234.124 37.4751 233.694 37.4751C233.106 37.4751 232.63 36.9987 232.63 36.4111Z" fill="#FFEDB2"/>
<path fill-rule="evenodd" clip-rule="evenodd" d="M161.589 5.03907C161.589 4.60872 161.848 4.22074 162.246 4.05605C162.643 3.89137 163.101 3.98241 163.405 4.28672C163.709 4.59103 163.801 5.04868 163.636 5.44627C163.471 5.84386 163.083 6.10308 162.653 6.10307C162.065 6.10305 161.589 5.62669 161.589 5.03907Z" fill="#FFEDB2"/>
<path fill-rule="evenodd" clip-rule="evenodd" d="M157.141 32.357C157.14 31.9262 157.399 31.5376 157.797 31.3724C158.195 31.2072 158.653 31.2981 158.958 31.6026C159.263 31.9071 159.354 32.3653 159.19 32.7634C159.025 33.1615 158.636 33.421 158.206 33.421C157.618 33.421 157.141 32.9448 157.141 32.357Z" fill="#FFEDB2"/>
<path fill-rule="evenodd" clip-rule="evenodd" d="M221.111 2.79806C221.111 2.36721 221.37 1.97881 221.768 1.81403C222.167 1.64925 222.625 1.74055 222.929 2.04536C223.234 2.35016 223.325 2.8084 223.159 3.20634C222.994 3.60426 222.606 3.86348 222.175 3.86306C221.587 3.86249 221.111 3.38584 221.111 2.79806Z" fill="#FFEDB2"/>
<path fill-rule="evenodd" clip-rule="evenodd" d="M101.718 12.1461C101.718 11.7152 101.977 11.3268 102.375 11.1621C102.773 10.9973 103.232 11.0886 103.536 11.3934C103.841 11.6982 103.932 12.1564 103.766 12.5544C103.601 12.9523 103.213 13.2115 102.782 13.2111C102.499 13.2111 102.229 13.0988 102.029 12.8991C101.829 12.6993 101.718 12.4284 101.718 12.1461Z" fill="#FFEDB2"/>
<path fill-rule="evenodd" clip-rule="evenodd" d="M0.132812 24.9471C0.133057 24.3589 0.60968 23.8828 1.19727 23.8831C1.78491 23.8833 2.26105 24.3599 2.2608 24.9476C2.2605 25.5352 1.78394 26.0113 1.19629 26.0111C0.608887 26.0108 0.132812 25.5345 0.132812 24.9471Z" fill="#FFEDB2"/>
<defs>
<linearGradient id="paint0_linear" x1="157.815" y1="103.045" x2="157.815" y2="133.836" gradientUnits="userSpaceOnUse">
<stop stop-color="#F59D10" stop-opacity="0.501961"/>
<stop offset="0.144" stop-color="#F59D10" stop-opacity="0.470588"/>
<stop offset="0.361" stop-color="#F59D12" stop-opacity="0.384314"/>
<stop offset="0.624" stop-color="#F69E16" stop-opacity="0.247059"/>
<stop offset="0.921" stop-color="#F69F1B" stop-opacity="0.054902"/>
<stop offset="1" stop-color="#F7A01D" stop-opacity="0.01"/>
</linearGradient>
<linearGradient id="paint1_linear" x1="190.531" y1="62.5317" x2="190.531" y2="54.6628" gradientUnits="userSpaceOnUse">
<stop stop-color="#F2A37C"/>
<stop offset="0.09" stop-color="#F2A47D" stop-opacity="0.968627"/>
<stop offset="0.225" stop-color="#F2A780" stop-opacity="0.882353"/>
<stop offset="0.39" stop-color="#F3AC86" stop-opacity="0.741176"/>
<stop offset="0.577" stop-color="#F4B28D" stop-opacity="0.54902"/>
<stop offset="0.783" stop-color="#F6BB97" stop-opacity="0.298039"/>
<stop offset="1" stop-color="#F8C6A3" stop-opacity="0.01"/>
</linearGradient>
<linearGradient id="paint2_linear" x1="198.271" y1="61.8698" x2="198.271" y2="54.6503" gradientUnits="userSpaceOnUse">
<stop stop-color="#F2A37C"/>
<stop offset="0.09" stop-color="#F2A47D" stop-opacity="0.968627"/>
<stop offset="0.225" stop-color="#F2A780" stop-opacity="0.882353"/>
<stop offset="0.39" stop-color="#F3AC86" stop-opacity="0.741176"/>
<stop offset="0.577" stop-color="#F4B28D" stop-opacity="0.54902"/>
<stop offset="0.783" stop-color="#F6BB97" stop-opacity="0.298039"/>
<stop offset="1" stop-color="#F8C6A3" stop-opacity="0.01"/>
</linearGradient>
</defs>
</svg>
